<?xml version="1.0" encoding="UTF-8"?>
<svg version="1.1" xmlns="http://www.w3.org/2000/svg" width="2000" height="2000">
<path d="M0 0 C660 0 1320 0 2000 0 C2000 660 2000 1320 2000 2000 C1340 2000 680 2000 0 2000 C0 1340 0 680 0 0 Z " fill="#000000" transform="translate(0,0)"/>
<path d="M0 0 C2.18098468 0.01599389 4.36008897 0.00011382 6.54101562 -0.01904297 C20.26918787 -0.04215177 33.26007015 1.9450988 46.07226562 7.07861328 C47.40354492 7.60189209 47.40354492 7.60189209 48.76171875 8.13574219 C65.18356325 14.76580885 79.47362147 24.38831962 91.22851562 37.65283203 C93.2815918 39.6395618 93.2815918 39.6395618 95.76367188 39.34033203 C98.48108001 38.37915273 101.18312624 37.38986066 103.86035156 36.32128906 C130.92753528 25.55578353 159.84016274 26.64240171 186.50976562 38.09814453 C199.63646577 44.02197563 210.39276726 52.15939534 220.44726562 62.39111328 C221.19492187 63.14005859 221.94257812 63.88900391 222.71289062 64.66064453 C242.46637754 85.61956077 251.8270122 113.52429756 251.68777466 141.91304016 C251.69033793 143.85917994 251.69033793 143.85917994 251.69295299 145.84463567 C251.69738059 149.40680584 251.6894869 152.96885352 251.67939687 156.53100812 C251.67069768 160.38698439 251.67368707 164.24295466 251.67520142 168.09893799 C251.67624621 174.76674832 251.67001226 181.43451928 251.65872574 188.10231972 C251.64241836 197.74263726 251.63725739 207.38293591 251.63474976 217.02326574 C251.63038084 232.66696983 251.61709362 248.31065298 251.59814453 263.9543457 C251.57976488 279.14379777 251.5656186 294.33324413 251.55712891 309.52270508 C251.55660346 310.46019328 251.55607801 311.39768148 251.55553664 312.36357842 C251.55292642 317.06704258 251.55039904 321.77050678 251.54791284 326.47397101 C251.52720538 365.44636643 251.49200183 404.41873847 251.44726562 443.39111328 C249.56105338 442.31143637 247.67745364 441.22719478 245.79492188 440.14111328 C244.74570557 439.53783203 243.69648926 438.93455078 242.61547852 438.31298828 C238.73025152 435.95616414 235.11752769 433.33036057 231.50585938 430.57861328 C227.89062834 427.99300744 224.15414159 425.64236997 220.3972168 423.26904297 C195.32087373 407.30552142 195.32087373 407.30552142 185.44726562 397.39111328 C184.82335937 396.82650391 184.19945312 396.26189453 183.55664062 395.68017578 C169.32514629 382.50057451 160.66797197 360.03756554 159.89192963 340.79756832 C159.80307327 336.15093684 159.82631439 331.50884515 159.8671875 326.86181641 C159.86692015 324.76703753 159.86437589 322.67225793 159.85975647 320.57748413 C159.85439568 316.10540514 159.8642382 311.63372451 159.88624573 307.16169739 C159.92038113 300.08357807 159.91597641 293.0057882 159.90612793 285.9276123 C159.89054175 270.91537632 159.91669399 255.90331556 159.94726562 240.89111328 C159.98029218 224.65168586 160.00603264 208.41244481 159.98338938 192.1729846 C159.97501628 185.14233675 159.99073132 178.11228778 160.02518463 171.08172512 C160.0416615 166.70869566 160.0374626 162.33586031 160.02773857 157.96281815 C160.02747927 155.94161327 160.03575595 153.92038574 160.05337715 151.89925766 C160.47430608 137.32366295 160.47430608 137.32366295 154.44726562 124.39111328 C150.64751937 120.68183718 147.94874328 119.51418522 142.63476562 119.07861328 C138.24365568 119.14306994 135.83571616 120.54173442 132.44726562 123.39111328 C126.84767168 129.45734005 126.15104753 134.64045202 126.16879272 142.57221985 C126.16010412 143.96295229 126.16010412 143.96295229 126.15123999 145.38178033 C126.13423039 148.48950009 126.13136264 151.59707143 126.12841797 154.70483398 C126.11912047 156.93214787 126.10895206 159.15945827 126.09797668 161.38676453 C126.07064263 167.43585489 126.05551713 173.48492192 126.04254866 179.53405786 C126.02693306 185.8548604 126.00013782 192.17561519 125.97451782 198.49638367 C125.93302337 209.10621875 125.89843687 219.7160538 125.86914062 230.32592773 C125.83894862 241.25335567 125.80459536 252.18075748 125.76464844 263.1081543 C125.76218689 263.78190168 125.75972534 264.45564906 125.7571892 265.14981303 C125.74481447 268.52986022 125.73235796 271.90990709 125.71986079 275.28995383 C125.61631662 303.32363731 125.52725277 331.35735345 125.44726562 359.39111328 C123.71607326 358.29160696 121.98516761 357.19164918 120.25437927 356.09150696 C119.29044974 355.47901753 118.32652021 354.86652811 117.3333807 354.2354784 C110.27698429 349.7261047 103.30906811 345.08061502 96.33227539 340.44946289 C94.45431727 339.20469228 92.57443756 337.96281578 90.69262695 336.72387695 C64.06105657 319.18714703 42.68877652 300.07290581 35.8828125 267.55761719 C33.47044894 254.51187813 34.01993983 241.14456595 34.03994942 227.92858815 C34.04175725 224.10960993 34.02423383 220.29072421 34.00817871 216.4717865 C33.96743158 205.9772477 33.95578772 195.48271795 33.94464874 184.9881134 C33.93410958 175.3374053 33.91724153 165.68681749 33.87655306 156.0361833 C33.85831341 151.51036279 33.85426106 146.98482993 33.86148834 142.45898163 C33.863019 139.63959524 33.85217313 136.82035085 33.83810997 134.00100327 C33.83225641 132.08987102 33.84116417 130.17871099 33.85066223 128.26759338 C33.77100048 117.01420912 31.39735964 107.42935214 24.44726562 98.39111328 C17.05775313 91.37832103 10.17102261 89.81558093 0.11914062 90.07470703 C-4.62484202 90.48349702 -7.74063579 91.6095581 -11.55273438 94.39111328 C-12.60460937 95.13361328 -13.65648437 95.87611328 -14.74023438 96.64111328 C-22.12166659 103.85851366 -25.61560139 112.58998618 -25.95146179 122.86427307 C-25.97771624 125.39206994 -25.98790785 127.92006639 -25.98510742 130.44799805 C-25.99413914 131.84833127 -26.00446979 133.24865661 -26.01599121 134.64897156 C-26.04342212 138.42519896 -26.05282664 142.20127578 -26.05884528 145.97758985 C-26.06826543 149.93343834 -26.09447159 153.88917596 -26.11885071 157.84495544 C-26.16241968 165.32448588 -26.19102547 172.80399467 -26.21417409 180.28361315 C-26.24127743 188.80367554 -26.28518565 197.32362585 -26.33046281 205.84360802 C-26.42317146 223.35938529 -26.49491507 240.8751868 -26.55273438 258.39111328 C-28.28658769 257.29049911 -30.02007743 256.18931218 -31.75341797 255.08789062 C-32.71879486 254.47472992 -33.68417175 253.86156921 -34.67880249 253.22982788 C-41.70503576 248.73450989 -48.61334973 244.05930459 -55.53759766 239.40917969 C-58.70085808 237.29197235 -61.87469038 235.19119001 -65.04882812 233.09033203 C-89.4541809 216.84844851 -109.54036342 199.09082927 -116.05891418 169.05908203 C-117.35385283 162.44115153 -117.8728262 156.10689093 -117.88867188 149.37158203 C-117.89532867 148.35171707 -117.90198547 147.33185211 -117.90884399 146.28108215 C-117.91890408 144.13231182 -117.92366309 141.98351066 -117.92333984 139.8347168 C-117.92767252 136.62444342 -117.96395295 133.41559386 -118.00195312 130.20556641 C-118.20527355 92.99237949 -106.95815995 60.73204514 -80.67773438 34.01611328 C-66.19528786 19.7901164 -48.40373155 9.08726937 -28.70361328 3.9609375 C-27.12386713 3.54242132 -25.55424757 3.08518987 -23.99169922 2.60644531 C-15.97343223 0.30441354 -8.27150866 -0.07181408 0 0 Z " fill="#EC1C24" transform="translate(317.552734375,816.60888671875)"/>
<path d="M0 0 C20.39019072 -0.89824629 39.10504617 7.47023659 54.91796875 19.6171875 C55.45164062 20.11734375 55.9853125 20.6175 56.53515625 21.1328125 C56.53515625 21.7928125 56.53515625 22.4528125 56.53515625 23.1328125 C58.02015625 23.6278125 58.02015625 23.6278125 59.53515625 24.1328125 C76.43317907 42.83198116 82.8312256 67.91039477 82.59765625 92.6328125 C82.59314453 93.550625 82.58863281 94.4684375 82.58398438 95.4140625 C82.57231951 97.65371641 82.55595239 99.89322795 82.53515625 102.1328125 C82.20515625 102.1328125 81.87515625 102.1328125 81.53515625 102.1328125 C81.38820313 101.52695312 81.24125 100.92109375 81.08984375 100.296875 C78.54432339 90.78774722 74.74837176 83.04763077 66.5625 77.2890625 C59.52303639 73.27426244 52.41634316 73.45368895 44.53515625 74.1328125 C41.44502545 75.00961342 39.11935673 76.24721167 36.53515625 78.1328125 C35.48328125 78.8753125 34.43140625 79.6178125 33.34765625 80.3828125 C25.96622404 87.60021288 22.47228924 96.3316854 22.13642883 106.60597229 C22.11017439 109.13376915 22.09998278 111.66176561 22.1027832 114.18969727 C22.09375148 115.59003048 22.08342083 116.99035583 22.07189941 118.39067078 C22.0444685 122.16689817 22.03506398 125.942975 22.02904534 129.71928906 C22.0196252 133.67513756 21.99341903 137.63087517 21.96903992 141.58665466 C21.92547094 149.0661851 21.89686515 156.54569389 21.87371653 164.02531236 C21.8466132 172.54537475 21.80270498 181.06532507 21.75742781 189.58530724 C21.66471917 207.10108451 21.59297555 224.61688602 21.53515625 242.1328125 C19.80130294 241.03219833 18.0678132 239.93101139 16.33447266 238.82958984 C15.36909576 238.21642914 14.40371887 237.60326843 13.40908813 236.9715271 C6.38285486 232.47620911 -0.5254591 227.8010038 -7.44970703 223.15087891 C-10.61296745 221.03367157 -13.78679975 218.93288923 -16.9609375 216.83203125 C-41.36629027 200.59014773 -61.45247279 182.83252849 -67.97102356 152.80078125 C-69.26596221 146.18285075 -69.78493557 139.84859015 -69.80078125 133.11328125 C-69.80743805 132.09341629 -69.81409485 131.07355133 -69.82095337 130.02278137 C-69.83101345 127.87401104 -69.83577247 125.72520988 -69.83544922 123.57641602 C-69.8397819 120.36614264 -69.87606233 117.15729308 -69.9140625 113.94726562 C-70.11738442 76.73380629 -58.87012263 44.47408095 -32.58984375 17.7578125 C-14.48780482 -0.02048277 -14.48780482 -0.02048277 -4.6484375 0.015625 C-2.4179598 0.1744691 -2.4179598 0.1744691 0 0 Z " fill="#EC1B23" transform="translate(269.46484375,832.8671875)"/>
<path d="M0 0 C3.90964582 3.33075667 7.58455587 6.86683133 11.18310547 10.52880859 C11.93076172 11.27775391 12.67841797 12.02669922 13.44873047 12.79833984 C33.20221739 33.75725608 42.56285204 61.66199287 42.4236145 90.05073547 C42.42532335 91.34816199 42.4270322 92.64558851 42.42879283 93.98233098 C42.43322043 97.54450116 42.42532674 101.10654884 42.41523671 104.66870344 C42.40653753 108.5246797 42.40952691 112.38064997 42.41104126 116.2366333 C42.41208605 122.90444364 42.4058521 129.5722146 42.39456558 136.24001503 C42.37825821 145.88033257 42.37309723 155.52063122 42.3705896 165.16096105 C42.36622069 180.80466515 42.35293347 196.44834829 42.33398438 212.09204102 C42.31560472 227.28149308 42.30145844 242.47093944 42.29296875 257.66040039 C42.2924433 258.59788859 42.29191786 259.53537679 42.29137649 260.50127373 C42.28876627 265.20473789 42.28623888 269.90820209 42.28375268 274.61166632 C42.26304523 313.58406174 42.22784167 352.55643378 42.18310547 391.52880859 C40.29689322 390.44913168 38.41329348 389.3648901 36.53076172 388.27880859 C35.48154541 387.67552734 34.4323291 387.07224609 33.35131836 386.45068359 C29.35552417 384.0267881 25.65166909 381.2983921 21.90966797 378.50537109 C18.37534072 375.94323701 14.70469804 373.64468336 10.98388672 371.36474609 C10.05962891 370.75888672 9.13537109 370.15302734 8.18310547 369.52880859 C7.19851718 368.97667331 7.19851718 368.97667331 6.19403821 368.41338378 C3.03323393 366.43451657 0.62640845 364.89473147 -0.55632937 361.25043237 C-0.83499914 358.41423773 -0.85749169 355.67275798 -0.79670715 352.82328796 C-0.80991053 351.20425268 -0.80991053 351.20425268 -0.82338065 349.55250961 C-0.84325189 345.93382656 -0.80608942 342.31798035 -0.76928711 338.69946289 C-0.77198175 336.10549843 -0.7782341 333.51153557 -0.78778076 330.91758728 C-0.80296299 325.32877965 -0.78926442 319.74064434 -0.75623512 314.15192223 C-0.70868452 306.05320578 -0.70829563 297.95501086 -0.71980234 289.8561878 C-0.73750914 276.69153387 -0.72175862 263.52714972 -0.68286133 250.36254883 C-0.64531762 237.61808209 -0.61585363 224.87366801 -0.6027832 212.12915039 C-0.6019722 211.34579776 -0.6011612 210.56244513 -0.60032562 209.75535455 C-0.59183429 201.185552 -0.58735232 192.61575575 -0.58824444 184.04594898 C-0.58835559 182.9126687 -0.58835559 182.9126687 -0.58846899 181.75649387 C-0.58883653 178.73406551 -0.58927449 175.71163732 -0.59025022 172.68920908 C-0.59303597 163.87400447 -0.58354624 155.05902917 -0.55106851 146.24388031 C-0.52865472 140.04413418 -0.52065689 133.8444471 -0.51751709 127.64466286 C-0.51356074 125.11523176 -0.50444317 122.5858022 -0.48956871 120.05641174 C-0.31424822 89.32523614 -6.00853113 62.16549324 -26.81689453 38.52880859 C-27.49107422 37.72314453 -28.16525391 36.91748047 -28.85986328 36.08740234 C-49.14961813 12.47145817 -78.64002852 -2.9078563 -107.81689453 -12.47119141 C-107.81689453 -13.13119141 -107.81689453 -13.79119141 -107.81689453 -14.47119141 C-72.15751503 -29.45760837 -30.3877371 -24.60581884 0 0 Z " fill="#F05056" transform="translate(526.81689453125,868.47119140625)"/>
<path d="M0 0 C0.33 0.66 0.66 1.32 1 2 C2.66138996 2.3587092 4.32984218 2.68462445 6 3 C45.13210877 16.18221461 80.23971605 40.88394436 99.53125 77.94140625 C108.87706008 97.51631944 109.29116187 116.66144554 109.22705078 137.89379883 C109.22648601 140.51637264 109.2268045 143.13894676 109.22793579 145.76152039 C109.22897936 151.3865685 109.2227584 157.01156986 109.21146011 162.63660622 C109.19513586 170.76923875 109.18999006 178.9018489 109.18748413 187.03449603 C109.18311784 200.23240141 109.1698378 213.43028193 109.15087891 226.62817383 C109.13249242 239.44099809 109.1183495 252.25381558 109.10986328 265.06665039 C109.10933783 265.85777581 109.10881239 266.64890123 109.10827102 267.46400014 C109.10566075 271.43324481 109.10313338 275.40248952 109.10064721 279.37173426 C109.07994793 312.24784094 109.0447516 345.12391713 109 378 C107.25930534 376.9028028 105.51999211 375.80341381 103.78125 374.703125 C102.81251953 374.09114258 101.84378906 373.47916016 100.84570312 372.84863281 C79.17310981 358.7696283 66.18756115 338.55967815 60.47208595 313.55722618 C59.00872291 305.63038517 59.34932046 297.49766373 59.41992188 289.47070312 C59.41965453 287.37592425 59.41711027 285.28114465 59.41249084 283.18637085 C59.40713005 278.71429186 59.41697258 274.24261123 59.4389801 269.77058411 C59.4731155 262.69246479 59.46871078 255.61467492 59.4588623 248.53649902 C59.44327613 233.52426304 59.46942836 218.51220228 59.5 203.5 C59.53302656 187.26057257 59.55876701 171.02133153 59.53612375 154.78187132 C59.52775066 147.75122347 59.54346569 140.7211745 59.57791901 133.69061184 C59.59439588 129.31758238 59.59019698 124.94474703 59.58047295 120.57170486 C59.58021365 118.55049998 59.58849033 116.52927246 59.60611153 114.50814438 C60.02704045 99.93254966 60.02704045 99.93254966 54 87 C50.20025375 83.2907239 47.50147766 82.12307194 42.1875 81.6875 C37.79639006 81.75195666 35.38845054 83.15062114 32 86 C29.11304175 89.1275381 27.37898 91.977975 26 96 C25.67 96 25.34 96 25 96 C24.97083496 95.31824707 24.94166992 94.63649414 24.91162109 93.93408203 C23.3130642 60.08195661 16.29717303 30.13878188 -6 4 C-4.03617993 2.49440461 -2.21736634 1.10868317 0 0 Z " fill="#EC1B23" transform="translate(418,854)"/>
<path d="M0 0 C12.54 0 25.08 0 38 0 C39.32 4.62 40.64 9.24 42 14 C42.93071442 17.1065401 43.86663569 20.21064629 44.8125 23.3125 C47.17756536 31.11530528 49.39184326 38.95359131 51.5625 46.8125 C53.73367945 54.66387151 56.07349782 62.37932036 58.734375 70.078125 C61.56988305 78.58464916 63.70701645 87.33511086 66 96 C69.90364306 82.86247506 73.7994936 69.72302076 77.625 56.5625 C79.94920207 48.5684458 82.31115002 40.58712119 84.7199707 32.61816406 C86.14058514 27.90592842 87.52981992 23.1857869 88.89453125 18.45703125 C89.21357422 17.35294922 89.53261719 16.24886719 89.86132812 15.11132812 C90.48657148 12.94287631 91.1090504 10.77362515 91.72851562 8.60351562 C92.01017578 7.62705078 92.29183594 6.65058594 92.58203125 5.64453125 C92.83186768 4.77159424 93.0817041 3.89865723 93.33911133 2.99926758 C94 1 94 1 95 0 C97.73894085 -0.08858646 100.4525327 -0.11523479 103.19140625 -0.09765625 C104.01124496 -0.0962413 104.83108368 -0.09482635 105.67576599 -0.09336853 C108.30471382 -0.08775289 110.93357773 -0.07519779 113.5625 -0.0625 C115.34049357 -0.05748701 117.11848846 -0.05292376 118.89648438 -0.04882812 C123.26435545 -0.03777839 127.63216348 -0.02050331 132 0 C137.1597955 25.69663558 142.31256185 51.39315409 147.25390625 77.1328125 C148.09974704 81.51701346 148.95526398 85.89926589 149.8125 90.28125 C150.12737636 91.89273769 150.4422364 93.50422858 150.75708008 95.11572266 C151.21274944 97.44781506 151.66881579 99.77982444 152.1265564 102.11151123 C153.70443729 110.15081947 155.2466536 118.19624905 156.70703125 126.2578125 C156.83736252 126.96066376 156.96769379 127.66351501 157.10197449 128.38766479 C157.75447115 132.04394734 158 135.24890481 158 139 C146.78 139 135.56 139 124 139 C118.347252 105.21810125 118.347252 105.21810125 116.40625 93.109375 C116.27825012 92.31123383 116.15025024 91.51309265 116.01837158 90.69076538 C115.89145935 89.89933136 115.76454712 89.10789734 115.63378906 88.29248047 C113.31198515 73.8148904 110.89905905 59.37592222 108 45 C107.79246094 45.88816406 107.58492187 46.77632812 107.37109375 47.69140625 C105.35370734 56.05638505 103.04864433 64.2807745 100.5 72.5 C98.49445263 78.96955851 96.57878477 85.41265666 95 92 C92.92960277 100.62070572 90.29550355 109.05112841 87.6796875 117.51953125 C85.93577934 123.17209808 84.30805092 128.8505469 82.7265625 134.55078125 C82 137 82 137 81 139 C71.1 139 61.2 139 51 139 C47.62782976 130.00754603 47.62782976 130.00754603 46.421875 125.41015625 C46.15181641 124.39155518 45.88175781 123.3729541 45.60351562 122.32348633 C45.18102539 120.7092981 45.18102539 120.7092981 44.75 119.0625 C44.13116592 116.73412028 43.51134924 114.40600153 42.890625 112.078125 C42.41979492 110.30985352 42.41979492 110.30985352 41.93945312 108.50585938 C37.74692035 92.86012896 33.25453768 77.3136604 28.48046875 61.8359375 C27.98677622 60.22402048 27.49326864 58.61204679 27 57 C26.68216553 55.98147949 26.68216553 55.98147949 26.35791016 54.94238281 C25.39167359 51.74982204 25 49.39180262 25 46 C24.34 46 23.68 46 23 46 C22.94680099 46.67659668 22.89360199 47.35319336 22.83879089 48.05029297 C22.29937438 54.47526253 21.47614555 60.77625947 20.36328125 67.125 C20.20317062 68.05908188 20.04306 68.99316376 19.87809753 69.95555115 C19.36025491 72.97107621 18.83643862 75.98552872 18.3125 79 C17.95271833 81.08855303 17.59334716 83.17717682 17.234375 85.26586914 C16.50952754 89.47987588 15.78239705 93.69347814 15.05322266 97.90673828 C13.94299645 104.3240967 12.84267614 110.74312726 11.74482727 117.16261292 C10.49984727 124.44231424 9.24959982 131.72108103 8 139 C-3.22 139 -14.44 139 -26 139 C-24.76926039 129.15408309 -23.49168609 119.80015715 -21.375 110.1875 C-18.7323263 97.80674337 -16.35399898 85.38778955 -14.0625 72.9375 C-11.49901006 59.0292951 -8.89562557 45.13083252 -6.1875 31.25 C-6.04651886 30.52658417 -5.90553772 29.80316833 -5.76028442 29.05783081 C-3.870045 19.36577677 -1.93660957 9.68304783 0 0 Z " fill="#FCFCFC" transform="translate(684,866)"/>
<path d="M0 0 C18.98720576 2.58594407 38.69469367 23.61593473 49.8125 37.9375 C66.18910987 60.79276871 74.20886623 87.2614916 74.12025452 115.34547424 C74.12110894 116.34955084 74.12196337 117.35362744 74.12284368 118.38813061 C74.12448282 121.73216091 74.11900287 125.07614038 74.11352539 128.42016602 C74.11324315 130.82540384 74.11340196 133.23064174 74.1139679 135.63587952 C74.11422474 141.47605947 74.10989969 147.31622294 74.10353024 153.15639914 C74.09636371 159.95575162 74.09488351 166.75510181 74.09374207 173.55445754 C74.09155685 185.67864248 74.08491118 197.80282067 74.07543945 209.92700195 C74.06625159 221.70011359 74.05917748 233.47322339 74.05493164 245.24633789 C74.05466892 245.9728003 74.05440619 246.69926271 74.05413551 247.44773913 C74.05283041 251.0924168 74.05156672 254.73709447 74.05032361 258.38177216 C74.03996753 288.58785294 74.022289 318.79392553 74 349 C73.40294597 348.58591102 72.80589193 348.17182203 72.19074535 347.7451849 C67.22145157 344.43081383 62.47060666 341.69529498 56.96319431 339.41768759 C46.72417516 335.09674811 36.11580489 329.64464281 30 320 C23.75191611 304.49804989 25.96862576 285.41585797 26.51674641 269.03560471 C26.74374077 262.03922799 26.77431752 255.04561427 26.79505119 248.04608382 C26.8367484 235.54282362 27.02192436 223.04615768 27.30297852 210.54614258 C27.57408061 198.47221955 27.78774724 186.39981658 27.91625977 174.32348633 C27.9281765 173.20744059 27.9281765 173.20744059 27.94033398 172.06884848 C28.01849719 164.64997689 28.08812113 157.2310259 28.15781995 149.81207098 C28.19196487 146.19535086 28.22698284 142.57863951 28.26216125 138.96192932 C28.26891281 138.2546516 28.27566437 137.54737387 28.28262053 136.81866349 C28.37655856 127.10810797 28.52673062 117.40001141 28.720542 107.69096325 C28.80819472 103.16253739 28.88052809 98.6338306 28.9551506 94.10517502 C28.99890642 91.71594707 29.05019669 89.32684174 29.110075 86.93796349 C29.55994632 68.90424417 28.94807207 50.44767903 21.125 33.8125 C20.77550293 33.03116699 20.42600586 32.24983398 20.06591797 31.44482422 C15.55781238 21.55094703 9.78596852 13.18282792 3.07421875 4.6875 C1 2 1 2 0 0 Z " fill="#F05056" transform="translate(369,827)"/>
<path d="M0 0 C10.23 0 20.46 0 31 0 C41.96888739 19.43609872 52.7798893 38.96010307 63.5625 58.5 C63.89379913 59.10024994 64.22509827 59.70049988 64.56643677 60.31893921 C68.73226604 67.86798663 72.87115993 75.43045987 77 83 C77.33 55.61 77.66 28.22 78 0 C88.23 0 98.46 0 109 0 C109 45.87 109 91.74 109 139 C98.77 139 88.54 139 78 139 C75.1846875 133.7715625 75.1846875 133.7715625 72.3125 128.4375 C67.2797121 119.12004994 62.13040938 109.87704631 56.89135742 100.67431641 C52.33667673 92.65087558 47.92890404 84.55258295 43.57617188 76.41796875 C39.86519267 69.50620981 35.9600024 62.78857554 32 56 C31.67 83.39 31.34 110.78 31 139 C20.77 139 10.54 139 0 139 C0 93.13 0 47.26 0 0 Z " fill="#FCFCFC" transform="translate(1047,1060)"/>
<path d="M0 0 C69.125 0 69.125 0 82.37890625 12.1875 C91.87407476 21.9485958 95.30189159 32.90357799 95.31469727 46.22290039 C95.08908606 58.84511337 90.67976213 68.76830837 82.15625 77.99609375 C77.12131772 82.79372389 71.41316447 85.44180755 65 88 C67.66949088 93.33898177 71.09086431 97.64317011 74.95166016 102.18603516 C78.40964285 106.26298552 81.70605585 110.44065341 84.9453125 114.69482422 C87.52185961 118.07754877 90.12058019 121.44106526 92.7421875 124.7890625 C93.38446289 125.61003418 94.02673828 126.43100586 94.68847656 127.27685547 C95.96731719 128.91006974 97.24788388 130.54193412 98.53027344 132.17236328 C99.11067383 132.91470215 99.69107422 133.65704102 100.2890625 134.421875 C100.81193848 135.08799805 101.33481445 135.75412109 101.87353516 136.44042969 C103 138 103 138 103 139 C90.73899237 141.68170564 75.78352326 144.62158545 64 139 C51.38584585 129.09708776 43.45732639 112.2115453 36.19927979 98.23371887 C34.88042824 95.77729159 33.43445664 93.39076107 32 91 C31.67 106.84 31.34 122.68 31 139 C20.77 139 10.54 139 0 139 C0 93.13 0 47.26 0 0 Z " fill="#FCFCFC" transform="translate(785,1060)"/>
<path d="M0 0 C69.23834197 0 69.23834197 0 81.453125 11.26171875 C91.4195759 21.77269428 95.57027488 32.88488153 95.30859375 47.27734375 C94.26371432 59.88202849 89.39170426 71.22458284 80.125 79.9375 C75.4921153 83.69438116 70.07809944 87 64 87 C66.66949088 92.33898177 70.09086431 96.64317011 73.95166016 101.18603516 C77.41031434 105.26377721 80.70674058 109.44272733 83.94750977 113.69702148 C86.51393726 117.06536371 89.09974327 120.41702866 91.70703125 123.75390625 C92.34479492 124.57036621 92.98255859 125.38682617 93.63964844 126.22802734 C94.90600743 127.84779632 96.173556 129.46663608 97.44238281 131.08447266 C98.01956055 131.82358887 98.59673828 132.56270508 99.19140625 133.32421875 C99.70904541 133.98510498 100.22668457 134.64599121 100.76000977 135.3269043 C102 137 102 137 103 139 C97.59269451 139.27334724 92.18945701 139.47212791 86.77685547 139.60424805 C84.93922865 139.65934131 83.10207924 139.73424833 81.26611328 139.82983398 C66.2449935 140.59189296 66.2449935 140.59189296 61.40429688 137.15942383 C59.67573506 134.82050305 58.30179753 132.47699494 57.00439453 129.87753296 C54.97179603 126.07795962 52.40253908 122.60075955 49.96875 119.05078125 C49.00149743 117.60401042 48.03741715 116.15511477 47.07617188 114.7043457 C42.05480565 107.13355972 37.02664312 99.5672834 32 92 C31.67 107.51 31.34 123.02 31 139 C20.77 139 10.54 139 0 139 C0 93.13 0 47.26 0 0 Z " fill="#FDFDFD" transform="translate(1612,866)"/>
<path d="M0 0 C10.23 0 20.46 0 31 0 C33.31 4.186875 35.62 8.37375 38 12.6875 C38.78101074 14.10281006 39.56202148 15.51812012 40.36669922 16.97631836 C43.62046988 22.87264488 46.87372946 28.76924688 50.12213135 34.66853333 C51.46802703 37.11264786 52.81456542 39.55640808 54.16113281 42.00015259 C55.07157251 43.65300536 55.98112642 45.30634597 56.890625 46.9597168 C63.53106699 59.00899283 70.2772382 70.99506822 77 83 C77.33 55.61 77.66 28.22 78 0 C88.23 0 98.46 0 109 0 C109 45.87 109 91.74 109 139 C98.77 139 88.54 139 78 139 C70.8336202 126.39977178 63.75715416 113.77091263 56.88916016 101.00610352 C52.58828423 93.03385883 48.16320438 85.13735266 43.6640625 77.27539062 C39.28044253 69.58974882 35.17057496 61.81982804 31 54 C30.67 82.05 30.34 110.1 30 139 C20.1 139 10.2 139 0 139 C0 93.13 0 47.26 0 0 Z " fill="#FDFDFD" transform="translate(1005,866)"/>
<path d="M0 0 C10.23 0 20.46 0 31 0 C31 18.15 31 36.3 31 55 C45.85 55 60.7 55 76 55 C76 36.85 76 18.7 76 0 C86.89 0 97.78 0 109 0 C109 45.87 109 91.74 109 139 C98.11 139 87.22 139 76 139 C76 120.52 76 102.04 76 83 C60.82 83 45.64 83 30 83 C30 101.48 30 119.96 30 139 C20.1 139 10.2 139 0 139 C0 93.13 0 47.26 0 0 Z " fill="#FDFDFD" transform="translate(1299,866)"/>
<path d="M0 0 C1.00482422 -0.01385742 2.00964844 -0.02771484 3.04492188 -0.04199219 C10.09902566 0.00177919 16.24176752 1.19398407 22.9375 3.375 C24.04222656 3.72820312 25.14695312 4.08140625 26.28515625 4.4453125 C38.1601325 9.05861262 46.17421833 17.13821805 51.96484375 28.3671875 C54.47516893 34.12821025 53.9375 37.52712266 53.9375 44.375 C44.0375 44.375 34.1375 44.375 23.9375 44.375 C22.9475 39.92 22.9475 39.92 21.9375 35.375 C19.43090661 30.67513739 15.84395748 28.86224243 10.98046875 27.109375 C1.82844658 24.90067132 -6.83290576 25.33012154 -15.109375 29.890625 C-17.27372031 31.53552743 -18.63806869 33.06140505 -20.0625 35.375 C-20.45337311 38.95800347 -20.32761431 41.57965707 -19.1875 45 C-12.66625593 52.28844926 -1.99137856 53.83686009 7.125 55.8125 C17.52209042 58.19919814 27.34122316 60.65302251 36.9375 65.375 C37.87078125 65.83390625 38.8040625 66.2928125 39.765625 66.765625 C48.25112069 71.38945798 55.06142833 78.20880145 58.3203125 87.4375 C60.83278115 99.39557862 59.60700831 112.97136578 52.9375 123.375 C43.81000057 136.09617674 30.00034603 141.74102229 14.9375 144.375 C-6.67175655 145.73708581 -26.20012689 144.61629918 -43.375 130.125 C-50.70127912 123.22967847 -55.89895572 114.45905041 -57.0625 104.375 C-57.0625 101.405 -57.0625 98.435 -57.0625 95.375 C-46.8325 95.375 -36.6025 95.375 -26.0625 95.375 C-25.4025 98.015 -24.7425 100.655 -24.0625 103.375 C-21.33107917 109.46816954 -17.85840636 113.02791755 -12.0625 116.375 C-2.35219753 120.05821818 9.12225797 119.67151874 18.6484375 115.625 C22.40549684 113.5733635 23.87501881 112.21548221 25.9375 108.375 C26.60170591 104.89768673 26.86226372 101.80750532 25.9375 98.375 C17.90099636 88.73406069 4.67923544 86.72377593 -6.9375 84 C-20.79309536 80.73234312 -39.04595222 75.95240172 -47.3125 63.125 C-53.21530314 53.51321627 -54.91845791 43.50136938 -52.37109375 32.34765625 C-47.98262369 19.25569327 -40.10207179 11.66364186 -28.125 5.0625 C-26.78646556 4.46375199 -25.43071417 3.90241217 -24.0625 3.375 C-23.29808594 3.07722656 -22.53367187 2.77945312 -21.74609375 2.47265625 C-14.58333366 0.21018327 -7.44718344 0.06156582 0 0 Z " fill="#FCFCFC" transform="translate(1236.0625,1057.625)"/>
<path d="M0 0 C1.12591553 0.00523682 2.25183105 0.01047363 3.41186523 0.01586914 C4.62680664 0.0190918 5.84174805 0.02231445 7.09350586 0.02563477 C8.37290039 0.03401367 9.65229492 0.04239258 10.97045898 0.05102539 C12.2537207 0.05553711 13.53698242 0.06004883 14.85913086 0.06469727 C18.04211921 0.07652994 21.22501661 0.09301471 24.40795898 0.11352539 C24.73716843 0.93987991 24.73716843 0.93987991 25.07302856 1.78292847 C39.06760738 36.91160258 39.06760738 36.91160258 53.37133789 71.91503906 C53.92136644 73.24419672 54.47133387 74.57337967 55.02124023 75.90258789 C55.29186279 76.55671158 55.56248535 77.21083527 55.84130859 77.88478088 C59.40356623 86.50720037 62.90509599 95.15434891 66.40795898 103.80102539 C66.71810944 104.5662149 67.02825989 105.33140442 67.34780884 106.11978149 C68.81249545 109.73407871 70.27476474 113.34931615 71.73217773 116.96655273 C72.86988896 119.78908631 74.0198576 122.60623586 75.17749023 125.4206543 C75.73352024 126.78310525 76.28951151 128.14557201 76.84545898 129.50805664 C77.33916992 130.70922119 77.83288086 131.91038574 78.34155273 133.14794922 C79.40795898 136.11352539 79.40795898 136.11352539 79.40795898 139.11352539 C68.51795898 139.11352539 57.62795898 139.11352539 46.40795898 139.11352539 C44.92295898 134.86477539 43.43795898 130.61602539 41.90795898 126.23852539 C41.20316406 124.22976318 41.20316406 124.22976318 40.48413086 122.18041992 C40.11868164 121.12967285 39.75323242 120.07892578 39.37670898 118.99633789 C38.9996582 117.91755371 38.62260742 116.83876953 38.23413086 115.72729492 C37.40795898 113.11352539 37.40795898 113.11352539 37.40795898 111.11352539 C19.58795898 111.11352539 1.76795898 111.11352539 -16.59204102 111.11352539 C-17.25204102 114.08352539 -17.91204102 117.05352539 -18.59204102 120.11352539 C-19.12422666 121.80615065 -19.69178452 123.48877207 -20.31860352 125.14868164 C-20.59784668 125.89770752 -20.87708984 126.6467334 -21.16479492 127.41845703 C-21.51203613 128.32845459 -21.85927734 129.23845215 -22.21704102 130.17602539 C-23.33079102 133.12540039 -24.44454102 136.07477539 -25.59204102 139.11352539 C-36.48204102 139.11352539 -47.37204102 139.11352539 -58.59204102 139.11352539 C-56.80610911 133.16041905 -55.19421243 127.81170973 -52.83422852 122.17602539 C-52.57425583 121.55048264 -52.31428314 120.92493988 -52.0464325 120.28044128 C-51.48493531 118.93043368 -50.92131704 117.58130661 -50.35574341 116.23300171 C-48.78437691 112.48543209 -47.23049628 108.73060067 -45.67407227 104.97680664 C-45.34380539 104.18139969 -45.01353851 103.38599274 -44.67326355 102.56648254 C-40.77560175 93.16821531 -36.96465567 83.73504171 -33.15454102 74.30102539 C-32.43851167 72.52911993 -31.72244718 70.75722867 -31.00634766 68.98535156 C-29.93307238 66.32953344 -28.85987597 63.67368362 -27.78697205 61.01771545 C-25.32560521 54.9253657 -22.85904367 48.83514057 -20.38891602 42.74633789 C-20.05065292 41.91248062 -19.71238983 41.07862335 -19.36387634 40.21949768 C-18.07034783 37.03109582 -16.77669065 33.8427464 -15.48245239 30.65463257 C-14.60850836 28.50173587 -13.73499614 26.34866441 -12.86157227 24.19555664 C-12.58785294 23.52153305 -12.31413361 22.84750946 -12.03211975 22.15306091 C-10.63103446 18.69788138 -9.24223891 15.23832297 -7.87084961 11.77124023 C-7.59464279 11.07439621 -7.31843597 10.37755219 -7.03385925 9.65959167 C-6.50903099 8.33344119 -5.9863906 7.00642212 -5.46626282 5.67842102 C-3.27486106 0.14343133 -3.27486106 0.14343133 0 0 Z " fill="#FCFCFC" transform="translate(949.592041015625,1059.886474609375)"/>
<path d="M0 0 C1.084021 0.00523682 2.16804199 0.01047363 3.28491211 0.01586914 C4.45473633 0.0190918 5.62456055 0.02231445 6.82983398 0.02563477 C8.0615332 0.03401367 9.29323242 0.04239258 10.56225586 0.05102539 C12.41560547 0.05779297 12.41560547 0.05779297 14.30639648 0.06469727 C17.37089703 0.07652931 20.43530307 0.09301366 23.49975586 0.11352539 C26.63642669 6.16326105 29.27462383 12.29993969 31.77319336 18.63696289 C32.17340195 19.64307114 32.57361053 20.64917938 32.98594666 21.68577576 C33.84139133 23.83679529 34.69537112 25.98839788 35.54800415 28.14053345 C37.79596118 33.8131412 40.05593698 39.48095309 42.31616211 45.14868164 C42.98856178 46.83543251 42.98856178 46.83543251 43.67454529 48.55625916 C47.32616353 57.70502184 51.04267124 66.82531613 54.81225586 75.92602539 C55.9088903 78.574347 57.00538042 81.22272797 58.10131836 83.87133789 C58.37130142 84.52376968 58.64128448 85.17620148 58.91944885 85.84840393 C63.20985343 96.23368895 67.40745159 106.65711535 71.61621094 117.07568359 C71.92052032 117.82830475 72.22482971 118.5809259 72.5383606 119.35635376 C73.10297676 120.75295334 73.6669749 122.14980302 74.23019409 123.54696655 C75.50078665 126.68971606 76.80849259 129.80597378 78.19238281 132.89990234 C79.49975586 136.11352539 79.49975586 136.11352539 79.49975586 139.11352539 C68.60975586 139.11352539 57.71975586 139.11352539 46.49975586 139.11352539 C45.01475586 135.05040039 43.52975586 130.98727539 41.99975586 126.80102539 C41.29496094 124.88422974 41.29496094 124.88422974 40.57592773 122.92871094 C40.21047852 121.92106689 39.8450293 120.91342285 39.46850586 119.87524414 C39.09145508 118.84359131 38.7144043 117.81193848 38.32592773 116.74902344 C37.49975586 114.11352539 37.49975586 114.11352539 37.49975586 111.11352539 C19.67975586 111.11352539 1.85975586 111.11352539 -16.50024414 111.11352539 C-17.49024414 114.74352539 -18.48024414 118.37352539 -19.50024414 122.11352539 C-20.5325381 125.19533729 -21.57927959 128.24860947 -22.68774414 131.30102539 C-24.07993164 135.16821289 -24.07993164 135.16821289 -25.50024414 139.11352539 C-36.39024414 139.11352539 -47.28024414 139.11352539 -58.50024414 139.11352539 C-57.75668975 135.39575343 -57.01656498 132.60379795 -55.62451172 129.17041016 C-55.23430344 128.20190125 -54.84409515 127.23339233 -54.44206238 126.23553467 C-54.01395767 125.18593567 -53.58585297 124.13633667 -53.14477539 123.05493164 C-52.69519974 121.94289368 -52.24562408 120.83085571 -51.78242493 119.68511963 C-50.55310669 116.64709131 -49.31986024 113.6106951 -48.08475494 110.57501602 C-46.78838671 107.38621203 -45.49696455 104.19540567 -44.20483398 101.00488281 C-41.243221 93.69535372 -38.27336323 86.38918943 -35.30162811 79.08377075 C-34.25585982 76.51269346 -33.21058033 73.94141757 -32.16528797 71.37014675 C-26.43113397 57.26545967 -20.69018312 43.1635421 -14.9309082 29.0690918 C-13.24976207 24.95400057 -11.57567249 20.83611661 -9.90551758 16.71655273 C-9.48930145 15.69244797 -9.07308533 14.6683432 -8.64425659 13.61320496 C-7.8516576 11.66294055 -7.06098045 9.71189368 -6.27249146 7.75996399 C-5.92209808 6.89912704 -5.57170471 6.0382901 -5.21069336 5.15136719 C-4.90332245 4.39284958 -4.59595154 3.63433197 -4.27926636 2.85282898 C-3.09878963 0.21720786 -3.00792646 0.13657707 0 0 Z " fill="#FCFCFC" transform="translate(1776.500244140625,865.886474609375)"/>
<path d="M0 0 C1.084021 0.00523682 2.16804199 0.01047363 3.28491211 0.01586914 C4.45473633 0.0190918 5.62456055 0.02231445 6.82983398 0.02563477 C8.0615332 0.03401367 9.29323242 0.04239258 10.56225586 0.05102539 C12.41560547 0.05779297 12.41560547 0.05779297 14.30639648 0.06469727 C17.37089703 0.07652931 20.43530307 0.09301366 23.49975586 0.11352539 C26.63642669 6.16326105 29.27462383 12.29993969 31.77319336 18.63696289 C32.17340195 19.64307114 32.57361053 20.64917938 32.98594666 21.68577576 C33.84139133 23.83679529 34.69537112 25.98839788 35.54800415 28.14053345 C37.79596118 33.8131412 40.05593698 39.48095309 42.31616211 45.14868164 C42.98856178 46.83543251 42.98856178 46.83543251 43.67454529 48.55625916 C47.32616353 57.70502184 51.04267124 66.82531613 54.81225586 75.92602539 C55.9088903 78.574347 57.00538042 81.22272797 58.10131836 83.87133789 C58.37130142 84.52376968 58.64128448 85.17620148 58.91944885 85.84840393 C63.20985343 96.23368895 67.40745159 106.65711535 71.61621094 117.07568359 C71.92052032 117.82830475 72.22482971 118.5809259 72.5383606 119.35635376 C73.10297676 120.75295334 73.6669749 122.14980302 74.23019409 123.54696655 C75.50078665 126.68971606 76.80849259 129.80597378 78.19238281 132.89990234 C79.49975586 136.11352539 79.49975586 136.11352539 79.49975586 139.11352539 C68.60975586 139.11352539 57.71975586 139.11352539 46.49975586 139.11352539 C45.01475586 135.05040039 43.52975586 130.98727539 41.99975586 126.80102539 C41.29496094 124.88422974 41.29496094 124.88422974 40.57592773 122.92871094 C40.21047852 121.92106689 39.8450293 120.91342285 39.46850586 119.87524414 C39.09145508 118.84359131 38.7144043 117.81193848 38.32592773 116.74902344 C37.49975586 114.11352539 37.49975586 114.11352539 37.49975586 111.11352539 C19.67975586 111.11352539 1.85975586 111.11352539 -16.50024414 111.11352539 C-17.49024414 114.74352539 -18.48024414 118.37352539 -19.50024414 122.11352539 C-20.5325381 125.19533729 -21.57927959 128.24860947 -22.68774414 131.30102539 C-24.07993164 135.16821289 -24.07993164 135.16821289 -25.50024414 139.11352539 C-36.39024414 139.11352539 -47.28024414 139.11352539 -58.50024414 139.11352539 C-57.75668975 135.39575343 -57.01656498 132.60379795 -55.62451172 129.17041016 C-55.23430344 128.20190125 -54.84409515 127.23339233 -54.44206238 126.23553467 C-54.01395767 125.18593567 -53.58585297 124.13633667 -53.14477539 123.05493164 C-52.69519974 121.94289368 -52.24562408 120.83085571 -51.78242493 119.68511963 C-50.55310669 116.64709131 -49.31986024 113.6106951 -48.08475494 110.57501602 C-46.78838671 107.38621203 -45.49696455 104.19540567 -44.20483398 101.00488281 C-41.243221 93.69535372 -38.27336323 86.38918943 -35.30162811 79.08377075 C-34.25585982 76.51269346 -33.21058033 73.94141757 -32.16528797 71.37014675 C-26.43113397 57.26545967 -20.69018312 43.1635421 -14.9309082 29.0690918 C-13.24976207 24.95400057 -11.57567249 20.83611661 -9.90551758 16.71655273 C-9.48930145 15.69244797 -9.07308533 14.6683432 -8.64425659 13.61320496 C-7.8516576 11.66294055 -7.06098045 9.71189368 -6.27249146 7.75996399 C-5.92209808 6.89912704 -5.57170471 6.0382901 -5.21069336 5.15136719 C-4.90332245 4.39284958 -4.59595154 3.63433197 -4.27926636 2.85282898 C-3.09878963 0.21720786 -3.00792646 0.13657707 0 0 Z " fill="#FCFCFC" transform="translate(907.500244140625,865.886474609375)"/>
<path d="M0 0 C1.24873901 0.01341431 1.24873901 0.01341431 2.52270508 0.02709961 C22.5994485 0.40303941 38.61457681 7.71427965 53.3125 21.375 C56.85489172 25.0575583 59.76498867 28.99251957 62.5625 33.25 C62.93197754 33.80703613 63.30145508 34.36407227 63.68212891 34.93798828 C66.52226317 39.45787031 68.17301031 44.14673387 69.6875 49.25 C64.81313009 49.47329729 59.94176039 49.63613882 55.06347656 49.74438477 C53.40637346 49.78951672 51.74962631 49.85084462 50.09375 49.92895508 C36.27562411 50.56422349 36.27562411 50.56422349 32.35888672 47.32299805 C30.796875 44.921875 30.796875 44.921875 29.72558594 42.52246094 C27.09351517 36.76062776 20.81072035 34.06180791 15.1875 31.875 C5.508738 28.9591198 -5.7974381 28.48228127 -15.07421875 32.92578125 C-25.17382595 38.90094153 -32.10234139 46.59678526 -36.390625 57.58203125 C-39.47454408 69.8523703 -38.50163737 83.14411136 -32.3125 94.25 C-27.99910397 101.37695638 -22.44979024 106.04287524 -15.3125 110.25 C-14.71179687 110.61222656 -14.11109375 110.97445312 -13.4921875 111.34765625 C-5.81029107 115.0508126 5.08261066 114.45665633 13.17578125 112.3359375 C19.13639546 109.98804626 25.23706427 106.94927729 29.6875 102.25 C30.03711792 101.27764404 30.03711792 101.27764404 30.39379883 100.28564453 C31.51780272 97.54294133 32.36445187 96.13200058 34.6875 94.25 C40.63806242 93.20264101 46.4848309 93.49909673 52.5 93.75 C54.16332653 93.79014647 55.82674537 93.82664526 57.49023438 93.859375 C61.55827097 93.94736332 65.6218765 94.08528444 69.6875 94.25 C62.99302776 114.20131844 50.0059633 128.10322519 31.12890625 137.52734375 C15.48467613 144.33476736 -3.56612629 146.08141395 -19.84765625 140.62890625 C-32.2808524 135.68085863 -42.08533809 130.02968658 -51.3125 120.25 C-52.04984375 119.48171875 -52.7871875 118.7134375 -53.546875 117.921875 C-57.87341852 112.99162774 -60.85510776 107.62187582 -63.6875 101.75 C-64.02168945 101.06212402 -64.35587891 100.37424805 -64.70019531 99.66552734 C-71.7623777 84.2356407 -71.74571016 63.20282983 -66.3125 47.25 C-62.62620464 38.2390558 -57.84448579 30.49088348 -51.3125 23.25 C-50.70921875 22.55390625 -50.1059375 21.8578125 -49.484375 21.140625 C-37.00706213 7.61479844 -18.28139857 -0.22351653 0 0 Z " fill="#FCFCFC" transform="translate(1207.3125,863.75)"/>
<path d="M0 0 C23.9994617 -0.70114133 44.96350488 6.12454711 62.66796875 22.76953125 C63.43753906 23.50558594 64.20710938 24.24164062 65 25 C65.67675781 25.60199219 66.35351562 26.20398438 67.05078125 26.82421875 C74.91103038 34.08589179 81.77173753 44.1581058 86 54 C85.505 54.99 85.505 54.99 85 56 C84.48050781 55.59007812 83.96101563 55.18015625 83.42578125 54.7578125 C82.72839844 54.21898437 82.03101563 53.68015625 81.3125 53.125 C80.62800781 52.59132813 79.94351563 52.05765625 79.23828125 51.5078125 C72.40162334 46.9023152 64.92671353 47.31695341 57 48 C53.9098692 48.87680092 51.58420048 50.11439917 49 52 C47.948125 52.7425 46.89625 53.485 45.8125 54.25 C38.43106779 61.46740038 34.93713299 70.1988729 34.60127258 80.47315979 C34.57501814 83.00095665 34.56482653 85.52895311 34.56762695 88.05688477 C34.55859523 89.45721798 34.54826458 90.85754333 34.53674316 92.25785828 C34.50931225 96.03408567 34.49990773 99.8101625 34.49388909 103.58647656 C34.48446895 107.54232506 34.45826278 111.49806267 34.43388367 115.45384216 C34.39031469 122.9333726 34.3617089 130.41288139 34.33856028 137.89249986 C34.31145695 146.41256225 34.26754873 154.93251257 34.22227156 163.45249474 C34.12956292 180.96827201 34.0578193 198.48407352 34 216 C32.23070369 214.87558732 30.46160113 213.75086976 28.69258118 212.62602234 C27.70739156 211.99972774 26.72220194 211.37343313 25.70715809 210.7281599 C22.96625172 208.97845622 20.24582204 207.20245151 17.54296875 205.39453125 C16.21555664 204.50797852 16.21555664 204.50797852 14.86132812 203.60351562 C13.5377832 202.71696289 13.5377832 202.71696289 12.1875 201.8125 C10.83495117 200.90854492 10.83495117 200.90854492 9.45507812 199.98632812 C7.7811258 198.86749425 6.1074944 197.74817993 4.43432617 196.62817383 C1.94156685 194.90439865 1.94156685 194.90439865 -1.10536766 193.33121681 C-4 191 -4 191 -4.74946022 187.85628319 C-4.74912474 186.6075876 -4.74878925 185.35889202 -4.7484436 184.07235718 C-4.75639242 183.3751851 -4.76434123 182.67801303 -4.77253091 181.95971453 C-4.79178606 179.62254173 -4.76814331 177.28778851 -4.74462891 174.95068359 C-4.74948535 173.27487789 -4.75692461 171.59907798 -4.76675415 169.92329407 C-4.78559255 165.36637427 -4.76669496 160.81031239 -4.74008989 156.25345945 C-4.71743446 151.47191988 -4.72567929 146.69042183 -4.72958374 141.90884399 C-4.73135127 133.86356654 -4.70917505 125.81862551 -4.67236328 117.7734375 C-4.63022633 108.51229316 -4.62296415 99.2516452 -4.6354872 89.99042451 C-4.6469478 81.05339174 -4.63548467 72.1165314 -4.61314011 63.17952347 C-4.60392382 59.39290761 -4.60206748 55.60639855 -4.6063118 51.81977463 C-4.61012754 47.33638645 -4.59349482 42.85349043 -4.56219101 38.37021446 C-4.55382413 36.73943432 -4.55192221 35.10860364 -4.55757141 33.47781181 C-4.59172403 21.83763911 -2.91323464 11.26763679 0 0 Z " fill="#F05056" transform="translate(257,859)"/>
<path d="M0 0 C36.63 0 73.26 0 111 0 C111 9.24 111 18.48 111 28 C97.8 28 84.6 28 71 28 C71 64.63 71 101.26 71 139 C60.77 139 50.54 139 40 139 C40 102.37 40 65.74 40 28 C26.8 28 13.6 28 0 28 C0 18.76 0 9.52 0 0 Z " fill="#FCFCFC" transform="translate(1484,866)"/>
<path d="M0 0 C36.3 0 72.6 0 110 0 C110 9.24 110 18.48 110 28 C96.8 28 83.6 28 70 28 C70 64.63 70 101.26 70 139 C59.77 139 49.54 139 39 139 C39 102.37 39 65.74 39 28 C26.13 28 13.26 28 0 28 C0 18.76 0 9.52 0 0 Z " fill="#FCFCFC" transform="translate(1366,1060)"/>
<path d="M0 0 C36.3 0 72.6 0 110 0 C110 9.24 110 18.48 110 28 C96.8 28 83.6 28 70 28 C70 64.63 70 101.26 70 139 C59.77 139 49.54 139 39 139 C39 102.37 39 65.74 39 28 C26.13 28 13.26 28 0 28 C0 18.76 0 9.52 0 0 Z " fill="#FCFCFC" transform="translate(658,1060)"/>
<path d="M0 0 C10.23 0 20.46 0 31 0 C31 45.87 31 91.74 31 139 C20.77 139 10.54 139 0 139 C0 93.13 0 47.26 0 0 Z " fill="#FBFBFB" transform="translate(1436,866)"/>
<path d="M0 0 C9.9 0 19.8 0 30 0 C30 45.87 30 91.74 30 139 C20.1 139 10.2 139 0 139 C0 93.13 0 47.26 0 0 Z " fill="#FFFFFF" transform="translate(1318,1060)"/>
<path d="M0 0 C20.39019072 -0.89824629 39.10504617 7.47023659 54.91796875 19.6171875 C55.45164062 20.11734375 55.9853125 20.6175 56.53515625 21.1328125 C56.53515625 21.7928125 56.53515625 22.4528125 56.53515625 23.1328125 C58.02015625 23.6278125 58.02015625 23.6278125 59.53515625 24.1328125 C76.43317907 42.83198116 82.8312256 67.91039477 82.59765625 92.6328125 C82.59314453 93.550625 82.58863281 94.4684375 82.58398438 95.4140625 C82.57231951 97.65371641 82.55595239 99.89322795 82.53515625 102.1328125 C82.20515625 102.1328125 81.87515625 102.1328125 81.53515625 102.1328125 C81.37660156 101.50375 81.21804688 100.8746875 81.0546875 100.2265625 C79.60655897 94.91409099 77.85283796 90.72923515 74.77734375 86.1796875 C73.43571011 83.96894528 72.5975658 81.81397709 71.72265625 79.3828125 C67.65698958 68.77955382 60.28449996 60.25117257 52.53515625 52.1328125 C51.99632812 51.51921875 51.4575 50.905625 50.90234375 50.2734375 C38.41649044 36.59546754 17.82273444 28.07504005 -0.38818359 26.95263672 C-16.09412172 26.29320004 -29.29210088 26.83576516 -43.46484375 34.1328125 C-44.79751995 34.80079182 -46.13072362 35.46772175 -47.46484375 36.1328125 C-43.54206208 29.81307975 -39.26268892 24.41014578 -33.96484375 19.1953125 C-33.2699585 18.50945068 -32.57507324 17.82358887 -31.85913086 17.11694336 C-14.14310663 -0.01921782 -14.14310663 -0.01921782 -4.6484375 0.015625 C-2.4179598 0.1744691 -2.4179598 0.1744691 0 0 Z " fill="#A41319" transform="translate(269.46484375,832.8671875)"/>
<path d="M0 0 C1.80277503 1.34324414 3.60370764 2.6889941 5.3984375 4.04296875 C7.27100949 5.45161525 9.15231235 6.84868249 11.0390625 8.23828125 C27.58342406 20.54094745 38.30232005 34.41744956 47 53 C47.41378906 53.86367188 47.82757813 54.72734375 48.25390625 55.6171875 C50.62210635 60.98510772 51.95002709 66.54862496 53.25 72.25 C53.51345215 73.40411377 53.51345215 73.40411377 53.78222656 74.58154297 C54.68917461 78.79656112 55.19347319 82.6606727 55 87 C54.443125 86.6390625 53.88625 86.278125 53.3125 85.90625 C47.88184046 82.6038219 44.36070282 81.06153565 38 82 C31.86421554 85.18588808 28.23224137 89.489296 26 96 C25.67 96 25.34 96 25 96 C24.97083496 95.31824707 24.94166992 94.63649414 24.91162109 93.93408203 C23.3130642 60.08195661 16.29717303 30.13878188 -6 4 C-4.03617993 2.49440461 -2.21736634 1.10868317 0 0 Z " fill="#A41319" transform="translate(418,854)"/>
<path d="M0 0 C23.51464435 0 23.51464435 0 30.09375 5.8671875 C34.79701199 12.58240046 35.10428991 18.98681938 34 27 C32.42431523 32.41068475 29.80446099 35.95326864 25 39 C20 41 20 41 0 41 C0 27.47 0 13.94 0 0 Z " fill="#010101" transform="translate(816,1084)"/>
<path d="M0 0 C20 0 20 0 28 5 C33.63076831 10.99017905 34.29571377 15.01291021 34.21875 22.98828125 C33.78162782 29.00651701 31.28182817 33.71817183 27 38 C20 41 20 41 0 41 C0 27.47 0 13.94 0 0 Z " fill="#010101" transform="translate(1643,890)"/>
<path d="M0 0 C0.66 0 1.32 0 2 0 C4.28751827 6.33227901 6.56515586 12.66804772 8.8359375 19.00634766 C9.60970277 21.16243939 10.38573188 23.31772008 11.1640625 25.47216797 C12.28199956 28.56788399 13.39178044 31.66641912 14.5 34.765625 C14.84998047 35.72929993 15.19996094 36.69297485 15.56054688 37.68585205 C15.88087891 38.58648376 16.20121094 39.48711548 16.53125 40.41503906 C16.81548828 41.20557678 17.09972656 41.9961145 17.39257812 42.81060791 C18 45 18 45 18 49 C6.78 49 -4.44 49 -16 49 C-14.62946008 42.83257034 -13.17326097 37.24118167 -10.99609375 31.38671875 C-10.71274673 30.60988235 -10.42939972 29.83304596 -10.13746643 29.03266907 C-9.24278001 26.58229852 -8.34058212 24.13478729 -7.4375 21.6875 C-6.53214189 19.22191048 -5.62841609 16.75574096 -4.7268219 14.28877258 C-4.16837248 12.76197639 -3.60755662 11.23604307 -3.04405212 9.71110535 C-1.86452171 6.49708334 -0.78907635 3.33050663 0 0 Z " fill="#080808" transform="translate(959,1097)"/>
<path d="M0 0 C2.46736873 2.19819091 3.61397074 4.04597437 4.7175293 7.1484375 C5.01761398 7.97939941 5.31769867 8.81036133 5.62687683 9.66650391 C5.93949966 10.56030762 6.2521225 11.45411133 6.57421875 12.375 C6.90291458 13.29587402 7.23161041 14.21674805 7.57026672 15.16552734 C8.26258688 17.11086014 8.95073641 19.05768154 9.63500977 21.00585938 C10.68468231 23.99198418 11.74846698 26.97279003 12.81445312 29.953125 C13.4852153 31.84345204 14.15516494 33.73406763 14.82421875 35.625 C15.14291428 36.51880371 15.4616098 37.41260742 15.78996277 38.33349609 C16.08059097 39.16445801 16.37121918 39.99541992 16.6706543 40.8515625 C16.92807907 41.58197754 17.18550385 42.31239258 17.45072937 43.06494141 C18 45 18 45 18 48 C6.78 48 -4.44 48 -16 48 C-14.87494943 40.124646 -14.87494943 40.124646 -13.6171875 36.65698242 C-13.3402002 35.8831572 -13.06321289 35.10933197 -12.77783203 34.3120575 C-12.47989746 33.50138321 -12.18196289 32.69070892 -11.875 31.85546875 C-11.56804199 31.00447098 -11.26108398 30.15347321 -10.94482422 29.27668762 C-9.96949528 26.57796869 -8.98474937 23.8827937 -8 21.1875 C-7.33795143 19.35763532 -6.67648708 17.52755915 -6.015625 15.69726562 C-1.20294251 2.40588501 -1.20294251 2.40588501 0 0 Z " fill="#070707" transform="translate(1786,904)"/>
<path d="M0 0 C2.46736873 2.19819091 3.61397074 4.04597437 4.7175293 7.1484375 C5.01761398 7.97939941 5.31769867 8.81036133 5.62687683 9.66650391 C5.93949966 10.56030762 6.2521225 11.45411133 6.57421875 12.375 C6.90291458 13.29587402 7.23161041 14.21674805 7.57026672 15.16552734 C8.26258688 17.11086014 8.95073641 19.05768154 9.63500977 21.00585938 C10.68468231 23.99198418 11.74846698 26.97279003 12.81445312 29.953125 C13.4852153 31.84345204 14.15516494 33.73406763 14.82421875 35.625 C15.14291428 36.51880371 15.4616098 37.41260742 15.78996277 38.33349609 C16.08059097 39.16445801 16.37121918 39.99541992 16.6706543 40.8515625 C16.92807907 41.58197754 17.18550385 42.31239258 17.45072937 43.06494141 C18 45 18 45 18 48 C6.78 48 -4.44 48 -16 48 C-14.87494943 40.124646 -14.87494943 40.124646 -13.6171875 36.65698242 C-13.3402002 35.8831572 -13.06321289 35.10933197 -12.77783203 34.3120575 C-12.47989746 33.50138321 -12.18196289 32.69070892 -11.875 31.85546875 C-11.56804199 31.00447098 -11.26108398 30.15347321 -10.94482422 29.27668762 C-9.96949528 26.57796869 -8.98474937 23.8827937 -8 21.1875 C-7.33795143 19.35763532 -6.67648708 17.52755915 -6.015625 15.69726562 C-1.20294251 2.40588501 -1.20294251 2.40588501 0 0 Z " fill="#070707" transform="translate(917,904)"/>
</svg>
