<?xml version="1.0" encoding="UTF-8"?>
<svg version="1.1" xmlns="http://www.w3.org/2000/svg" width="2000" height="2000">
<path d="M0 0 C660 0 1320 0 2000 0 C2000 660 2000 1320 2000 2000 C1340 2000 680 2000 0 2000 C0 1340 0 680 0 0 Z " fill="#000000" transform="translate(0,0)"/>
<path d="M0 0 C1.26587952 -0.01266403 2.53175903 -0.02532806 3.83599854 -0.03837585 C5.20877802 -0.04651524 6.58156067 -0.05413509 7.9543457 -0.0612793 C9.01192707 -0.06845191 9.01192707 -0.06845191 10.09087372 -0.07576942 C15.43728377 -0.11160984 20.78361119 -0.12689717 26.13012695 -0.13549805 C26.9111742 -0.13723778 27.69222145 -0.13897751 28.4969368 -0.14076996 C52.06100513 -0.18728835 75.1227882 0.50490356 98.44262695 4.17700195 C102.040617 4.67996937 105.63951274 5.17569884 109.23901367 5.66772461 C113.67759562 6.37332451 118.01490081 7.40623791 122.38012695 8.46606445 C125.12619089 9.10354358 127.84849284 9.60253059 130.63012695 10.05200195 C137.96814019 11.33375099 145.07179655 13.51491727 152.22631836 15.55541992 C155.43236208 16.45458133 158.65633808 17.28154461 161.88012695 18.11450195 C174.05425361 21.35396913 186.11045263 24.95911096 197.66137695 30.02075195 C201.61239207 31.6633088 205.66356599 32.92793015 209.7512207 34.18481445 C212.44262695 35.17700195 212.44262695 35.17700195 214.7902832 36.60668945 C217.59527667 38.26737778 220.34066513 39.29729853 223.39428711 40.3996582 C226.57908534 41.60828723 229.60043578 43.1296217 232.63012695 44.67700195 C233.30591797 45.01957031 233.98170898 45.36213867 234.67797852 45.71508789 C236.93561371 46.863745 239.18902945 48.02044578 241.44262695 49.17700195 C242.25489746 49.59014648 243.06716797 50.00329102 243.90405273 50.42895508 C282.16122346 69.91388244 317.27701483 94.18198362 348.94262695 123.17700195 C352.02955231 125.99752142 355.13216891 128.78119058 358.31762695 131.48950195 C366.44187969 138.55843938 374.13692573 146.35832019 381.07543945 154.59106445 C382.47770175 156.21768871 383.82134624 157.76533273 385.44262695 159.17700195 C390.35744724 159.17700195 394.15663065 156.91762691 398.40356445 154.7043457 C410.04936584 148.85150722 422.2964796 143.58258411 434.82543945 139.99462891 C437.24364224 139.23916612 439.51137356 138.35100675 441.84106445 137.3605957 C448.4416613 134.69182834 455.23144284 132.70641577 462.06762695 130.73950195 C463.09155548 130.44444763 463.09155548 130.44444763 464.13616943 130.14343262 C494.83016261 121.34569471 527.42736676 115.49304103 559.44262695 115.17700195 C560.83554504 115.15325757 562.22844777 115.12860311 563.62133789 115.10327148 C600.11285083 114.4724332 635.90572776 116.75235516 671.43920898 125.68579102 C673.48567569 126.18755692 675.53755114 126.65204827 677.5949707 127.10668945 C687.73671089 129.36367311 697.55666476 132.30998637 707.4309082 135.5324707 C709.89899961 136.32321844 712.38591981 137.03600763 714.88012695 137.73950195 C719.36567532 139.07594958 723.62364544 140.82577946 727.9230957 142.66918945 C730.5641872 143.80066705 733.21010825 144.90774524 735.8684082 145.99731445 C745.61256668 150.00814484 755.12494881 154.29430932 764.47436523 159.15600586 C766.44618483 160.17884753 768.4262331 161.18426576 770.4074707 162.1887207 C793.8974879 174.22460112 815.77323187 188.80875267 836.44262695 205.17700195 C837.05428711 205.65717773 837.66594727 206.13735352 838.29614258 206.63208008 C848.2038826 214.42882424 857.47866585 222.72265219 866.5925293 231.4284668 C868.85306523 233.56490891 871.15659898 235.64972007 873.46850586 237.73022461 C877.73309074 241.57200985 881.73695274 245.44034252 885.41918945 249.84106445 C887.65845543 252.42616301 890.00024605 254.89215555 892.35766602 257.36914062 C899.03701342 264.40485023 905.23696347 271.63865065 911.08178711 279.37915039 C912.47505854 281.21984843 913.88546097 283.04644703 915.2980957 284.87231445 C938.92520908 315.62450377 959.26512672 350.0158318 973.44262695 386.17700195 C973.83490479 387.16885498 974.22718262 388.16070801 974.63134766 389.18261719 C983.86398855 412.59182926 983.86398855 412.59182926 986.6574707 423.2590332 C987.43473928 426.14768806 988.37803525 428.92185588 989.38012695 431.73950195 C996.67287632 453.41833895 1000.12901122 476.64485053 1003.19262695 499.23950195 C1003.30815918 500.06885254 1003.42369141 500.89820313 1003.54272461 501.75268555 C1005.60585413 517.92273707 1005.58883155 534.28032724 1005.56567478 550.55248547 C1005.56641617 552.65354683 1005.5675966 554.75460808 1005.56917128 556.85566899 C1005.57221883 562.60077012 1005.56908319 568.34585334 1005.56489315 574.09095312 C1005.56144144 580.35176285 1005.56383306 586.61257087 1005.56547064 592.87338096 C1005.56753959 603.83643406 1005.5659417 614.79948086 1005.56183243 625.76253319 C1005.55744556 637.51815855 1005.55526086 649.2737813 1005.55573463 661.0294075 C1005.55577767 662.14550205 1005.55577767 662.14550205 1005.55582158 663.28414397 C1005.55597797 667.07850283 1005.55616992 670.87286169 1005.55637442 674.66722055 C1005.55777985 702.09138237 1005.55435824 729.51554188 1005.54835701 756.93970299 C1005.54243001 784.08964741 1005.53858101 811.23959084 1005.5375042 838.3895359 C1005.53746978 839.23341368 1005.53743537 840.07729145 1005.53739992 840.94674128 C1005.53708671 848.65452098 1005.53679902 856.36230069 1005.53654194 864.07008039 C1005.53590263 883.22882025 1005.53494336 902.3875601 1005.53376675 921.54629993 C1005.53371343 922.41864542 1005.53366011 923.2909909 1005.53360518 924.1897711 C1005.53098509 966.60096105 1005.52467811 1009.01215035 1005.51806641 1051.42333984 C1005.5157747 1066.13680013 1005.51349931 1080.85026041 1005.5112915 1095.5637207 C1005.51115455 1096.47627912 1005.51101761 1097.38883753 1005.51087651 1098.32904923 C1005.50452975 1140.76968136 1005.50080597 1183.2103136 1005.49775671 1225.65094609 C1005.49755865 1228.40699543 1005.49735945 1231.16304477 1005.49716003 1233.91909411 C1005.49584022 1252.18392584 1005.49456558 1270.44875757 1005.49332117 1288.71358931 C1005.49084482 1325.05454846 1005.48810314 1361.39550759 1005.48517912 1397.73646671 C1005.48503988 1399.46702901 1005.48490083 1401.19759131 1005.48476196 1402.92815361 C1005.4785107 1480.81147773 1005.46917332 1558.69480137 1005.45849609 1636.578125 C1005.45834619 1637.67178461 1005.45834619 1637.67178461 1005.45819326 1638.78753835 C1005.45319303 1675.25069291 1005.44801656 1711.71384745 1005.44262695 1748.17700195 C1003.99268023 1747.37812556 1002.5435324 1746.57779906 1001.09472656 1745.77685547 C1000.28764755 1745.33132828 999.48056854 1744.88580109 998.64903259 1744.42677307 C996.32719348 1743.11161714 994.15907412 1741.68902474 992.00512695 1740.11450195 C987.37826794 1736.81062427 982.6771384 1733.63592155 977.94262695 1730.48950195 C977.17426514 1729.97863037 976.40590332 1729.46775879 975.61425781 1728.94140625 C974.02567409 1727.88568218 972.43688554 1726.83026626 970.84790039 1725.77514648 C966.91791826 1723.16393424 962.99298559 1720.54515703 959.06762695 1717.92700195 C957.56765164 1716.92696492 956.06765235 1715.92696385 954.56762695 1714.92700195 C893.63012696 1674.30200195 893.63012696 1674.30200195 890.79223633 1672.40942383 C888.54344819 1670.91012013 886.29348245 1669.4126047 884.04272461 1667.91625977 C876.15291795 1662.66815156 868.295234 1657.37542758 860.46005249 1652.04620361 C844.93528988 1641.49061814 829.32065403 1631.07168695 813.68359375 1620.68334961 C805.53954328 1615.26943444 797.40652117 1609.85462571 789.44262695 1604.17700195 C788.47711914 1603.5015332 787.51161133 1602.82606445 786.5168457 1602.13012695 C775.49932216 1594.26819526 765.43173108 1585.29013849 755.44262695 1576.17700195 C754.43008381 1575.26891695 753.41703977 1574.36139023 752.40356445 1573.4543457 C747.39057808 1568.9464716 742.53914751 1564.4244202 738.20043945 1559.24731445 C736.10376424 1556.77789699 733.89874019 1554.42409236 731.69262695 1552.05200195 C717.87919418 1536.86139915 705.8127787 1519.87851098 695.44262695 1502.17700195 C694.77231445 1501.05165039 694.10200195 1499.92629883 693.41137695 1498.7668457 C682.378826 1479.92948644 673.21432731 1460.0990074 666.21899414 1439.42944336 C665.48926095 1437.31229921 664.71621947 1435.21881116 663.91918945 1433.1262207 C661.06494086 1425.56463426 658.77780754 1417.98626778 656.94262695 1410.11450195 C656.72687012 1409.19185547 656.51111328 1408.26920898 656.28881836 1407.31860352 C652.8166841 1392.28918517 650.49599544 1377.28190404 648.85865176 1361.94454926 C648.57641662 1359.38860976 648.26973921 1356.83527371 647.94111001 1354.28488427 C646.04998341 1338.81186272 646.15905824 1323.32744178 646.18796081 1307.76851518 C646.19333259 1303.65617377 646.1869275 1299.54384668 646.18207014 1295.43150693 C646.17514267 1288.2417652 646.17546823 1281.05205318 646.1806736 1273.86231041 C646.18835411 1263.17081229 646.18443738 1252.47933997 646.17805113 1241.78784209 C646.16754723 1223.79474364 646.16568919 1205.80165456 646.16823196 1187.8085537 C646.17165516 1162.10170708 646.15826939 1136.39488387 646.1414575 1110.68804357 C646.13477817 1100.36258496 646.1286388 1090.037126 646.12250328 1079.71166706 C646.12147729 1077.99119963 646.12147729 1077.99119963 646.12043057 1076.23597528 C646.10426792 1048.96184312 646.09342194 1021.68770952 646.08422852 994.41357422 C646.08382248 993.22083465 646.08341645 992.02809508 646.08299811 990.79921188 C646.07356652 962.95997287 646.06670249 935.12073468 646.06427002 907.28149414 C646.06416346 906.08333177 646.06405689 904.8851694 646.0639471 903.65069907 C646.06341391 897.60851092 646.06289916 891.56632277 646.06238572 885.52413461 C646.06223241 883.73278253 646.06223241 883.73278253 646.062076 881.90524151 C646.06187044 879.49478633 646.06166788 877.08433115 646.06146833 874.67387596 C646.0580875 834.84750471 646.04117852 795.021157 646.00936679 755.19479801 C646.00489362 749.57104601 646.00060376 743.94729388 645.99644089 738.32354164 C645.99562043 737.21681316 645.99479997 736.11008467 645.99395465 734.96981896 C645.98121074 717.16570677 645.98319892 699.36162516 645.99107534 681.55751137 C645.9987585 663.66995933 645.99235493 645.78245822 645.97143628 627.89491632 C645.95947302 617.27112415 645.9586977 606.6474674 645.97392879 596.0236787 C645.9830176 588.92371108 645.97759081 581.8238494 645.96048632 574.72389685 C645.95116525 570.68130479 645.9480651 566.63898067 645.96275695 562.5963985 C645.97603112 558.91082646 645.97056675 555.22575176 645.9508436 551.54021293 C645.945142 549.60694496 645.95882738 547.67364852 645.97356236 545.7404283 C645.87407268 533.89802193 643.06073644 522.64912129 638.13012695 511.86450195 C637.82945313 511.19773437 637.5287793 510.5309668 637.21899414 509.84399414 C629.05164773 492.27440535 614.46038406 477.50762444 596.44262695 470.17700195 C581.62623122 465.10233546 565.9650804 466.05453286 551.88793945 472.9074707 C534.8295922 482.96186126 522.2491945 497.72967381 515.19262695 516.17700195 C514.94625488 516.81718262 514.69988281 517.45736328 514.44604492 518.11694336 C510.69314948 528.39526031 510.15101355 538.30504858 510.18091393 549.18200111 C510.17772246 550.69784559 510.17365795 552.21368842 510.16880465 553.72952849 C510.15800051 557.89172518 510.15956246 562.05383882 510.16315536 566.21604458 C510.16486381 570.74530426 510.154997 575.27454122 510.14660132 579.8037914 C510.13348184 587.74058793 510.1277437 595.67736315 510.12684059 603.61417007 C510.12546425 615.4158977 510.11267886 627.21759369 510.09755285 639.01931072 C510.07243149 658.87190598 510.05656709 678.72449858 510.04597092 698.57710648 C510.03544853 718.23484497 510.02081639 737.89257332 510.00069046 757.55030441 C509.99881716 759.38341011 509.99881716 759.38341011 509.99690601 761.25354824 C509.9905423 767.45977833 509.98410511 773.66600834 509.97763963 779.87223832 C509.93197197 823.83563732 509.89552645 867.79903961 509.86450195 911.76245117 C509.85697807 922.41674809 509.84942488 933.07104499 509.84173584 943.7253418 C509.84125899 944.38613105 509.84078214 945.04692031 509.84029084 945.72773348 C509.81759389 977.11691397 509.78940143 1008.50608882 509.76000977 1039.89526367 C509.75816326 1041.86992675 509.75816326 1041.86992675 509.75627945 1043.88448201 C509.74391264 1057.10468462 509.73146091 1070.32488715 509.71894697 1083.54508962 C509.69345636 1110.47637887 509.66853253 1137.40766864 509.64395142 1164.33895874 C509.64282051 1165.57722707 509.6416896 1166.8154954 509.64052442 1168.09128702 C509.56506394 1250.78651754 509.50281606 1333.48175908 509.44262695 1416.17700195 C506.12817446 1414.88615439 503.25787481 1413.54756916 500.30981445 1411.55200195 C499.12125854 1410.75318604 499.12125854 1410.75318604 497.90869141 1409.93823242 C496.6261145 1409.06642334 496.6261145 1409.06642334 495.31762695 1408.17700195 C493.43366984 1406.90853887 491.54954692 1405.64032204 489.6652832 1404.37231445 C488.66126465 1403.69458984 487.65724609 1403.01686523 486.62280273 1402.31860352 C481.59203282 1398.93077044 476.54261528 1395.57103762 471.49398804 1392.2098999 C468.61667376 1390.29391229 465.74064775 1388.37599296 462.86450195 1386.45825195 C461.77202148 1385.72993164 460.67954102 1385.00161133 459.55395508 1384.2512207 C358.47387695 1316.86450195 358.47387695 1316.86450195 356.57348633 1315.59716797 C355.03361176 1314.57087897 353.49317643 1313.54543119 351.95239258 1312.52050781 C343.41295132 1306.83616521 334.89501881 1301.12008944 326.38842773 1295.38671875 C324.75872294 1294.28913258 323.128189 1293.19277653 321.49682617 1292.09765625 C305.64640464 1281.45595743 290.168597 1270.46080499 276.05981445 1257.5480957 C274.62816522 1256.25106423 273.19029377 1254.96034754 271.72460938 1253.7019043 C265.89572413 1248.69478667 260.439218 1243.35717513 255.00512695 1237.92700195 C254.1150293 1237.04915039 253.22493164 1236.17129883 252.30786133 1235.2668457 C246.24517288 1229.21744291 240.77470159 1222.87303603 235.44262695 1216.17700195 C234.33437708 1214.83667006 233.22276767 1213.49910358 232.10668945 1212.1652832 C224.65432211 1203.18431735 217.80410322 1193.96054372 211.44262695 1184.17700195 C210.93763672 1183.40291992 210.43264648 1182.62883789 209.91235352 1181.83129883 C200.8025719 1167.76019 192.97755355 1153.13988424 185.44262695 1138.17700195 C184.98758789 1137.29028809 184.53254883 1136.40357422 184.0637207 1135.48999023 C181.54803056 1130.55529506 179.31715834 1125.63806482 177.44262695 1120.42700195 C177.06871826 1119.40848145 177.06871826 1119.40848145 176.68725586 1118.36938477 C175.93264499 1116.30751732 175.18678398 1114.24266201 174.44262695 1112.17700195 C173.99661133 1110.94981445 173.5505957 1109.72262695 173.09106445 1108.45825195 C163.0154331 1080.51846441 156.16863608 1052.65806267 152.44262695 1023.17700195 C152.35830927 1022.52037052 152.27399158 1021.86373909 152.18711881 1021.18720973 C150.54537887 1008.1247593 150.15889382 995.2523125 150.19107056 982.09812927 C150.188927 979.93061522 150.18589792 977.7631019 150.18207014 975.59559017 C150.17409444 969.69146457 150.17830601 963.78740304 150.18458891 957.88327777 C150.18914929 951.4951836 150.18206863 945.10710109 150.17628479 938.7190094 C150.16767588 927.66259241 150.16582858 916.606192 150.16823196 905.54977226 C150.17166348 888.79584024 150.15824305 872.04194394 150.1414575 855.28802158 C150.13477917 848.54925127 150.12863917 841.81048045 150.12250328 835.07170963 C150.12147729 833.9489227 150.12147729 833.9489227 150.12043057 832.80345321 C150.10427825 815.01578105 150.0934265 797.22810667 150.08422852 779.44042969 C150.08382248 778.66291701 150.08341645 777.88540432 150.08299811 777.08433065 C150.07357453 758.95235931 150.06670511 740.82038921 150.06427002 722.68841553 C150.06416346 721.90887916 150.06405689 721.1293428 150.0639471 720.32618412 C150.06341393 716.39524715 150.06289918 712.46431017 150.06238572 708.53337318 C150.06228351 707.75644454 150.06218131 706.9795159 150.062076 706.17904397 C150.06187044 704.61089997 150.06166789 703.04275598 150.06146833 701.47461198 C150.05808006 675.50800798 150.04110567 649.54143999 150.00936679 623.57485472 C150.00489439 619.90047464 150.00060438 616.22609438 149.99644089 612.55171394 C149.99562043 611.8287133 149.99479997 611.10571265 149.99395465 610.36080289 C149.98126214 598.77845671 149.98317502 587.19615773 149.99107534 575.61380915 C149.99879706 563.95316305 149.99195056 552.29260946 149.97143628 540.63197684 C149.96081153 534.32796196 149.95650515 528.02411764 149.96990776 521.72010422 C150.67476078 478.6637081 150.67476078 478.6637081 140.44262695 437.17700195 C140.05204102 436.16250977 139.66145508 435.14801758 139.2590332 434.1027832 C126.39803998 401.84488216 104.08687077 373.67256977 71.69262695 359.55200195 C61.35950275 355.45672176 50.65110098 351.40117143 39.44262695 351.17700195 C38.74685547 351.1526709 38.05108398 351.12833984 37.33422852 351.10327148 C6.69376016 350.09280131 -20.93467553 359.82110633 -43.74487305 380.55200195 C-68.47671852 403.73458604 -86.95777063 437.03213287 -88.67273715 471.49530555 C-88.86903977 478.20225538 -88.84256233 484.91126708 -88.83584595 491.62043762 C-88.84085385 493.90029955 -88.8467311 496.1801597 -88.85339868 498.46001738 C-88.86915271 504.70152058 -88.87262683 510.94297871 -88.87404728 517.18449938 C-88.87736876 523.23110093 -88.89002933 529.27767842 -88.90244715 535.32426634 C-88.92751383 547.68592235 -88.94341363 560.04757407 -88.95402908 572.40925026 C-88.96456486 584.64301281 -88.97921173 596.87675915 -88.99930954 609.11050987 C-89.00055841 609.87210699 -89.00180727 610.6337041 -89.00309399 611.41837991 C-89.00945803 615.28638825 -89.01589514 619.15439646 -89.02236037 623.02240463 C-89.06798292 650.39595011 -89.10444774 677.76950085 -89.13549805 705.14306641 C-89.16567782 731.73063935 -89.2000237 758.3182016 -89.23999023 784.90576172 C-89.24122124 785.72578263 -89.24245224 786.54580354 -89.24372055 787.39067357 C-89.25608775 795.62590859 -89.26853945 803.86114348 -89.28105303 812.09637827 C-89.3065411 828.87143631 -89.33146539 845.64649518 -89.35604858 862.42155457 C-89.35717949 863.1927887 -89.3583104 863.96402284 -89.35947558 864.75862771 C-89.43488874 916.23140676 -89.49711975 967.70420318 -89.55737305 1019.17700195 C-91.28037771 1018.08380089 -93.00294783 1016.98991495 -94.7253418 1015.89575195 C-95.684646 1015.28666992 -96.6439502 1014.67758789 -97.63232422 1014.05004883 C-107.24442377 1007.89496763 -116.63244963 1001.40138257 -126.05615234 994.96386719 C-134.09534857 989.47816152 -142.18142384 984.06594549 -150.28955078 978.68286133 C-151.03793213 978.18592773 -151.78631348 977.68899414 -152.55737305 977.17700195 C-153.88973999 976.29238281 -153.88973999 976.29238281 -155.24902344 975.38989258 C-162.4696637 970.5869068 -169.6521816 965.73004323 -176.82504272 960.85623169 C-188.75517223 952.75154167 -200.73088613 944.71928974 -212.74487305 936.73950195 C-222.3887768 930.33316474 -231.9706914 923.86262454 -241.42138672 917.17285156 C-250.70895662 910.6167456 -260.19926001 904.36355723 -269.67651367 898.08642578 C-292.99449379 882.6313476 -315.92307272 867.17548153 -336.55737305 848.17700195 C-337.14631348 847.63849609 -337.73525391 847.09999023 -338.34204102 846.54516602 C-352.01984436 834.02649855 -352.01984436 834.02649855 -356.9128418 828.13012695 C-358.91760479 825.74917328 -361.05223177 823.50893476 -363.18237305 821.23950195 C-369.82402862 813.95184948 -375.68061016 806.08493853 -381.55737305 798.17700195 C-382.00612793 797.58016602 -382.45488281 796.98333008 -382.91723633 796.3684082 C-395.81175845 779.18232717 -405.86689265 760.29884001 -415.55737305 741.17700195 C-416.005 740.3051123 -416.45262695 739.43322266 -416.91381836 738.53491211 C-420.42006761 731.64642466 -423.14775426 724.64928172 -425.75708008 717.37963867 C-426.54147744 715.22075125 -427.35707543 713.07595235 -428.1784668 710.9309082 C-436.64095874 688.39224091 -442.31666982 664.82053454 -445.55737305 640.98950195 C-445.6573761 640.25699219 -445.75737915 639.52448242 -445.8604126 638.76977539 C-448.447268 619.42431109 -448.72091946 600.2414139 -448.72463012 580.74760008 C-448.72534994 578.61381117 -448.72750176 576.48002836 -448.73012733 574.346241 C-448.7393479 566.83295547 -448.74346769 559.31968748 -448.74267578 551.80639648 C-448.7421461 545.67616129 -448.74913189 539.54599032 -448.76318359 533.41577148 C-448.95892582 446.06700133 -448.95892582 446.06700133 -444.0300293 417.93676758 C-443.47108351 414.67317092 -442.96762336 411.40265314 -442.46362305 408.13012695 C-432.89718008 346.97784641 -411.88385317 288.5465999 -380.43237305 235.23950195 C-379.77527344 234.12575195 -379.11817383 233.01200195 -378.44116211 231.86450195 C-372.28104337 221.53298846 -365.62621595 211.55852044 -358.68237305 201.73950195 C-358.17407959 201.02068848 -357.66578613 200.301875 -357.14208984 199.5612793 C-347.78390839 186.40348058 -337.80509206 173.68638951 -326.90917969 161.76391602 C-325.48020577 160.19208921 -324.05958759 158.61253853 -322.65454102 157.01928711 C-316.39043709 149.9302679 -309.78049456 143.21396242 -303.0925293 136.52685547 C-301.18727801 134.61941256 -299.29019692 132.70408729 -297.39331055 130.78833008 C-290.4168587 123.7801609 -283.31705962 117.31650747 -275.55737305 111.17700195 C-274.39291161 110.18263211 -273.23546145 109.17992772 -272.08862305 108.1652832 C-250.83453712 89.3758875 -226.92809098 74.52565103 -202.55737305 60.17700195 C-201.79247559 59.72405762 -201.02757812 59.27111328 -200.23950195 58.80444336 C-188.39577224 51.81967968 -176.02262595 45.96158126 -163.55737305 40.17700195 C-162.14041138 39.51450439 -162.14041138 39.51450439 -160.69482422 38.83862305 C-155.36783419 36.37506806 -150.0591206 34.16342787 -144.49487305 32.30200195 C-139.2145528 30.49328991 -133.99615059 28.58897671 -128.81347656 26.51635742 C-119.52544844 22.80355838 -110.19888503 19.81889038 -100.55737305 17.17700195 C-99.53949707 16.8929248 -98.52162109 16.60884766 -97.47290039 16.31616211 C-94.06578636 15.36567538 -90.65587575 14.42593151 -87.24487305 13.48950195 C-86.17172852 13.19172852 -85.09858398 12.89395508 -83.99291992 12.5871582 C-77.90982793 10.94004406 -71.88110658 9.63022627 -65.65429688 8.66210938 C-62.34110973 8.1431261 -59.044628 7.55654261 -55.74487305 6.95825195 C-42.43417021 4.57550581 -29.21800927 2.41702926 -15.7277832 1.39477539 C-13.92215322 1.21360307 -12.12462586 0.95379492 -10.33155823 0.67445374 C-6.8399792 0.21425051 -3.51807718 0.0314371 0 0 Z " fill="#EC1C23" transform="translate(721.557373046875,126.822998046875)"/>
<path d="M0 0 C36.49151294 -0.63083828 72.28438987 1.64908367 107.81787109 10.58251953 C109.8643378 11.08428544 111.91621325 11.54877678 113.97363281 12.00341797 C124.115373 14.26040162 133.93532687 17.20671489 143.80957031 20.42919922 C146.27766172 21.21994695 148.76458192 21.93273615 151.25878906 22.63623047 C155.74433742 23.9726781 160.00230755 25.72250797 164.30175781 27.56591797 C166.94284931 28.69739557 169.58877036 29.80447376 172.24707031 30.89404297 C181.99122879 34.90487336 191.50361092 39.19103784 200.85302734 44.05273438 C202.82484694 45.07557604 204.80489521 46.08099428 206.78613281 47.08544922 C230.27615001 59.12132963 252.15189398 73.70548118 272.82128906 90.07373047 C273.43294922 90.55390625 274.04460937 91.03408203 274.67480469 91.52880859 C284.58254471 99.32555275 293.85732796 107.6193807 302.97119141 116.32519531 C305.23172734 118.46163743 307.53526109 120.54644858 309.84716797 122.62695312 C314.11175285 126.46873836 318.11561484 130.33707104 321.79785156 134.73779297 C324.03711754 137.32289153 326.37890816 139.78888407 328.73632812 142.26586914 C335.41567553 149.30157875 341.61562558 156.53537916 347.46044922 164.27587891 C348.85372065 166.11657694 350.26412308 167.94317555 351.67675781 169.76904297 C375.30387119 200.52123228 395.64378883 234.91256032 409.82128906 271.07373047 C410.21356689 272.0655835 410.60584473 273.05743652 411.01000977 274.0793457 C420.24265066 297.48855778 420.24265066 297.48855778 423.03613281 308.15576172 C423.81340139 311.04441658 424.75669736 313.81858439 425.75878906 316.63623047 C433.05153843 338.31506746 436.50767333 361.54157905 439.57128906 384.13623047 C439.68682129 384.96558105 439.80235352 385.79493164 439.92138672 386.64941406 C441.98451624 402.81946558 441.96749366 419.17705576 441.94433689 435.44921398 C441.94507828 437.55027535 441.94625871 439.6513366 441.94783339 441.75239751 C441.95088094 447.49749863 441.9477453 453.24258185 441.94355526 458.98768163 C441.94010355 465.24849136 441.94249517 471.50929938 441.94413275 477.77010947 C441.9462017 488.73316258 441.94460381 499.69620937 441.94049454 510.6592617 C441.93610767 522.41488706 441.93392296 534.17050981 441.93439674 545.92613602 C441.93443978 547.04223057 441.93443978 547.04223057 441.93448369 548.18087249 C441.93464008 551.97523135 441.93483202 555.76959021 441.93503653 559.56394907 C441.93644196 586.98811089 441.93302035 614.41227039 441.92701912 641.8364315 C441.92109212 668.98637593 441.91724312 696.13631935 441.91616631 723.28626442 C441.91613189 724.13014219 441.91609748 724.97401997 441.91606203 725.8434698 C441.91574882 733.5512495 441.91546113 741.2590292 441.91520405 748.9668089 C441.91456474 768.12554877 441.91360547 787.28428861 441.91242886 806.44302845 C441.91237554 807.31537393 441.91232222 808.18771942 441.91226729 809.08649961 C441.9096472 851.49768957 441.90334022 893.90887887 441.89672852 936.32006836 C441.89443681 951.03352864 441.89216142 965.74698892 441.88995361 980.46044922 C441.88974819 981.82928684 441.88974819 981.82928684 441.88953862 983.22577774 C441.88319186 1025.66640988 441.87946808 1068.10704212 441.87641882 1110.5476746 C441.87622075 1113.30372394 441.87602156 1116.05977329 441.87582214 1118.81582263 C441.87450233 1137.08065436 441.87322769 1155.34548609 441.87198328 1173.61031782 C441.86950692 1209.95127698 441.86676525 1246.29223611 441.86384123 1282.63319523 C441.86370199 1284.36375753 441.86356294 1286.09431983 441.86342407 1287.82488213 C441.85717281 1365.70820625 441.84783543 1443.59152989 441.8371582 1521.47485352 C441.8370083 1522.56851312 441.8370083 1522.56851312 441.83685537 1523.68426687 C441.83185514 1560.14742143 441.82667867 1596.61057596 441.82128906 1633.07373047 C440.37134234 1632.27485408 438.92219451 1631.47452757 437.47338867 1630.67358398 C436.66630966 1630.22805679 435.85923065 1629.7825296 435.0276947 1629.32350159 C432.70585559 1628.00834565 430.53773623 1626.58575325 428.38378906 1625.01123047 C423.75693005 1621.70735278 419.05580051 1618.53265007 414.32128906 1615.38623047 C413.55292725 1614.87535889 412.78456543 1614.3644873 411.99291992 1613.83813477 C410.4043362 1612.78241069 408.81554765 1611.72699477 407.2265625 1610.671875 C403.29658037 1608.06066276 399.3716477 1605.44188555 395.44628906 1602.82373047 C393.94631375 1601.82369343 392.44631446 1600.82369237 390.94628906 1599.82373047 C330.00878906 1559.19873047 330.00878906 1559.19873047 327.16088867 1557.29956055 C324.94533195 1555.82242659 322.72866164 1554.34700469 320.51147461 1552.87231445 C311.81538035 1547.08657141 303.14748118 1541.26023829 294.5 1535.40209961 C292.39957367 1533.97959262 290.29794101 1532.55887902 288.19628906 1531.13818359 C286.85507051 1530.23008787 285.51392182 1529.32188894 284.17285156 1528.41357422 C283.54698151 1527.99075668 282.92111145 1527.56793915 282.27627563 1527.13230896 C277.93574042 1524.18818183 277.93574042 1524.18818183 276.82128906 1523.07373047 C276.72139003 1520.8415143 276.69410477 1518.60605736 276.69297987 1516.37160718 C276.69125582 1515.65792627 276.68953177 1514.94424535 276.68775547 1514.20893773 C276.68313866 1511.78228545 276.68573434 1509.35569181 276.68821049 1506.92903709 C276.68637199 1505.17824061 276.68409421 1503.42744455 276.68141344 1501.67664915 C276.67526569 1496.81999898 276.67541042 1491.96336544 276.67648639 1487.10671224 C276.67655864 1481.83994395 276.67085241 1476.57318161 276.66584152 1471.30641615 C276.65784252 1462.06007399 276.65354922 1452.81373578 276.65162468 1443.56739044 C276.64873302 1429.81702178 276.64011905 1416.06666098 276.63021156 1402.31629579 C276.61417619 1379.89505314 276.60210359 1357.47381081 276.59241675 1335.05256468 C276.58218646 1311.41069787 276.56914617 1287.76883512 276.55210686 1264.1269722 C276.5513375 1263.05914683 276.5513375 1263.05914683 276.55055259 1261.96974923 C276.54428539 1253.28804103 276.53788553 1244.60633293 276.53144699 1235.92462486 C276.52163356 1222.68014201 276.51210562 1209.43565894 276.50259898 1196.19117586 C276.5015316 1194.70413602 276.50046355 1193.21709617 276.49939483 1191.73005632 C276.47419743 1156.66178402 276.45154899 1121.59351023 276.42990349 1086.52523557 C276.42846643 1084.19765431 276.42702675 1081.87007305 276.42558668 1079.5424918 C276.40343585 1043.7161949 276.38257124 1007.88989752 276.3638916 972.06359863 C276.3630798 970.50853374 276.36226793 968.95346885 276.36145599 967.39840395 C276.35780915 960.41125003 276.35417082 953.4240961 276.35053341 946.43694217 C276.34891997 943.33791157 276.34730568 940.23888097 276.34569149 937.13985037 C276.34448273 934.81798178 276.34327586 932.4961132 276.34206908 930.17424461 C276.32386476 895.18131901 276.30415978 860.18839555 276.27837276 825.19547462 C276.27783102 824.45936139 276.27728928 823.72324815 276.27673112 822.96482846 C276.26535709 807.5280519 276.25358892 792.09127568 276.24129093 776.65449983 C276.23553382 769.42447848 276.2298789 762.19445706 276.22428703 754.96443558 C276.22373502 754.25260816 276.223183 753.54078074 276.22261425 752.80738279 C276.20490745 729.90455791 276.19394663 707.00173583 276.18670724 684.09890542 C276.17919239 660.36921663 276.1648857 636.63954424 276.14260883 612.90986399 C276.13000232 599.23738103 276.12294209 585.56492137 276.12385902 571.89243248 C276.12392875 562.749411 276.11675748 553.60641335 276.10380897 544.46340109 C276.09664724 539.26019691 276.09254446 534.05704263 276.09733147 528.85383455 C276.15988762 499.40885387 276.15988762 499.40885387 273.82128906 470.07373047 C273.65989399 468.68601996 273.49851395 467.2983077 273.33715159 465.91059339 C272.94027806 462.62322104 272.4902119 459.34971138 272.00878906 456.07373047 C271.83919678 454.90712891 271.66960449 453.74052734 271.49487305 452.53857422 C269.79553433 441.25772702 267.46902412 430.1659699 264.82128906 419.07373047 C264.6029541 418.14431641 264.38461914 417.21490234 264.15966797 416.25732422 C263.51550202 413.5268581 262.85932174 410.79967191 262.19628906 408.07373047 C262.00236572 407.26677734 261.80844238 406.45982422 261.60864258 405.62841797 C260.41930679 400.8730898 258.81197064 396.56864711 256.82128906 392.07373047 C256.16403559 390.06315587 255.53846571 388.04192473 254.94628906 386.01123047 C252.1737382 376.82583295 249.35053535 367.63898826 244.82910156 359.14794922 C243.59045711 356.59864611 242.66221911 353.98848155 241.69628906 351.32373047 C226.29890464 310.73062608 199.23850515 272.5642406 170.82128906 240.07373047 C170.1909375 239.34412109 169.56058594 238.61451172 168.91113281 237.86279297 C167.22702562 235.92165802 165.52505771 233.99762072 163.82128906 232.07373047 C163.23178467 231.39938965 162.64228027 230.72504883 162.03491211 230.03027344 C155.68671121 222.85498298 148.97527144 216.07492226 142.19165039 209.3137207 C140.25518357 207.382635 138.3241495 205.44623165 136.39355469 203.50927734 C130.37335424 197.48549609 124.35159362 191.54987486 117.82128906 186.07373047 C116.70264819 185.10144175 115.58543596 184.12750668 114.46972656 183.15185547 C96.20082777 167.32598712 76.87708723 152.56169511 56.82128906 139.07373047 C56.26231934 138.69474609 55.70334961 138.31576172 55.12744141 137.92529297 C50.71747424 134.93565031 46.27958276 131.99078019 41.82128906 129.07373047 C41.13921387 128.62690918 40.45713867 128.18008789 39.75439453 127.71972656 C25.14615782 118.20137421 10.02196772 109.59778309 -5.17871094 101.07373047 C-6.17902344 100.51089355 -7.17933594 99.94805664 -8.20996094 99.36816406 C-27.09580187 88.77406339 -46.60180186 79.65132427 -66.30371094 70.69873047 C-66.95089081 70.40363586 -67.59807068 70.10854126 -68.26486206 69.80450439 C-76.79522237 65.92142758 -85.4044862 62.37032874 -94.17871094 59.07373047 C-95.74302794 58.45329226 -97.30590244 57.82918162 -98.86621094 57.19873047 C-99.67832031 56.87517578 -100.49042969 56.55162109 -101.32714844 56.21826172 C-103.48314779 55.35290855 -105.63318991 54.47269306 -107.78027344 53.58544922 C-115.01793102 50.64661073 -122.26667931 47.99405154 -129.75683594 45.76123047 C-130.41387009 45.56413986 -131.07090424 45.36704926 -131.74784851 45.16398621 C-135.05599389 44.17496086 -138.36865443 43.20817053 -141.69165039 42.27026367 C-142.90554443 41.91279053 -144.11943848 41.55531738 -145.37011719 41.18701172 C-146.46525635 40.87546143 -147.56039551 40.56391113 -148.6887207 40.24291992 C-151.17871094 39.07373047 -151.17871094 39.07373047 -152.11108398 37.04321289 C-152.17871094 35.07373047 -152.17871094 35.07373047 -151.06933594 33.44873047 C-148.77610144 31.78092356 -146.61679503 30.97476424 -143.92871094 30.07373047 C-140.75050787 28.97822928 -137.69852228 27.86312141 -134.61621094 26.51123047 C-131.13770391 25.05658208 -127.68957815 23.99123028 -124.07324219 22.94482422 C-120.80806467 21.96218645 -117.59248796 20.86486403 -114.36621094 19.76123047 C-77.54486486 7.38518004 -38.82960385 0.70616976 0 0 Z " fill="#F05056" transform="translate(1285.1787109375,241.92626953125)"/>
<path d="M0 0 C0.66 0.33 1.32 0.66 2 1 C2 1.99 2 2.98 2 4 C3.45684204 4.44484741 3.45684204 4.44484741 4.94311523 4.89868164 C38.90794793 15.29605781 38.90794793 15.29605781 51.96704102 21.13891602 C54.56149401 22.23782747 57.19455817 23.21579244 59.83203125 24.20703125 C67.49948086 27.13444332 74.98920058 30.42952298 82.48266602 33.77368164 C84.79673141 34.80546915 87.11399316 35.82980414 89.43164062 36.85351562 C98.81586475 41.01766157 108.04120705 45.42738992 117.1897583 50.08544922 C120.27985157 51.6465928 123.39151026 53.16336494 126.5 54.6875 C150.06778826 66.41077468 173.04077501 79.48173532 195 94 C195.93972656 94.61746094 196.87945313 95.23492187 197.84765625 95.87109375 C200.31569771 97.50400701 202.77447592 99.14963276 205.22705078 100.80566406 C206.50994328 101.66987641 207.79506187 102.53078726 209.08154297 103.38964844 C221.1311305 111.44007556 232.66678391 119.97234452 244 129 C244.95390625 129.75023437 245.9078125 130.50046875 246.890625 131.2734375 C256.36552099 138.76166175 265.56580525 146.59682059 274.48828125 154.734375 C276.5373622 156.58269063 278.61076114 158.39010314 280.69970703 160.19262695 C284.72472396 163.71292338 288.54257806 167.39734097 292.31640625 171.18359375 C292.97656235 171.84279312 293.63671844 172.50199249 294.31687927 173.1811676 C295.70035506 174.56396835 297.08259083 175.94801076 298.46362305 177.33325195 C300.55731669 179.43230343 302.65629874 181.5259594 304.75585938 183.61914062 C306.10969571 184.97363786 307.46322175 186.32844531 308.81640625 187.68359375 C309.43326797 188.29843124 310.0501297 188.91326874 310.6856842 189.54673767 C314.9863974 193.87026207 319.02479453 198.37694566 323 203 C323.845625 203.96421875 324.69125 204.9284375 325.5625 205.921875 C333.87899491 215.57114153 341.45285684 225.74357061 349 236 C349.46792969 236.63019043 349.93585938 237.26038086 350.41796875 237.90966797 C365.30910045 257.98405897 378.11548205 279.52065007 389 302 C389.35126953 302.721875 389.70253906 303.44375 390.06445312 304.1875 C393.79542066 311.87965812 397.36470523 319.50877026 400.14453125 327.60546875 C400.96738928 329.90871977 401.91119065 332.0935624 402.9375 334.3125 C408.95099947 347.52325868 412.74750697 361.63030975 416.38476562 375.64013672 C416.82473142 377.3277198 417.26925724 379.01411668 417.71679688 380.69970703 C421.11589983 393.53283429 423.98007721 406.22387997 425.66455078 419.39599609 C426.02846842 422.22099283 426.41739335 425.04193841 426.80859375 427.86328125 C427.08166766 429.86705983 427.35382033 431.87096419 427.625 433.875 C427.74834717 434.77742432 427.87169434 435.67984863 427.9987793 436.60961914 C429.75356218 450.01518886 430.14571931 463.29869628 430.12304783 476.79294395 C430.12378885 478.56414655 430.12496891 480.335349 430.12654433 482.10655105 C430.12959762 486.95909855 430.12645137 491.81162493 430.12226619 496.66417084 C430.11881933 501.94874431 430.1212052 507.23331573 430.12284368 512.51788962 C430.12491414 521.774654 430.12327925 531.03141195 430.11920547 540.28817558 C430.11316479 554.05259726 430.1128702 567.81701489 430.11374746 581.58143765 C430.11506076 604.73656837 430.11172953 627.89169561 430.10573006 651.04682541 C430.09980427 673.97240589 430.0959543 696.89798519 430.09487724 719.82356644 C430.09482563 720.89219122 430.09482563 720.89219122 430.09477296 721.98240439 C430.09445976 728.48939045 430.09417207 734.9963765 430.09391499 741.50336256 C430.09327566 757.67780236 430.09231637 773.85224213 430.09113979 790.0266819 C430.09108648 790.76316754 430.09103316 791.49965318 430.09097823 792.25845657 C430.08835775 828.06976576 430.08205062 863.88107417 430.07543945 899.69238281 C430.07314776 912.11712646 430.07087238 924.54187011 430.06866455 936.96661377 C430.06845913 938.12251565 430.06845913 938.12251565 430.06824955 939.30176908 C430.06190351 975.13628751 430.05817925 1010.97080607 430.05512976 1046.80532491 C430.05493169 1049.1322068 430.0547325 1051.45908869 430.05453308 1053.78597058 C430.05321328 1069.20655442 430.05193863 1084.62713827 430.05069422 1100.04772212 C430.04821782 1130.72991351 430.04547615 1161.41210487 430.04255217 1192.09429622 C430.04241293 1193.5554071 430.04227388 1195.01651797 430.04213501 1196.47762885 C430.03413194 1280.66154927 430.0209718 1364.84546884 430 1488 C426.57726956 1486.66803537 423.60630091 1485.24401827 420.53613281 1483.22192383 C419.68464661 1482.66406693 418.8331604 1482.10621002 417.95587158 1481.53144836 C416.59326202 1480.62836189 416.59326202 1480.62836189 415.203125 1479.70703125 C413.78081573 1478.77065071 413.78081573 1478.77065071 412.32977295 1477.81535339 C410.32452178 1476.49359633 408.32075055 1475.16959167 406.31835938 1473.84350586 C403.27876947 1471.83154306 400.23354489 1469.82834468 397.1875 1467.82617188 C395.23402902 1466.53698244 393.28089327 1465.24728486 391.328125 1463.95703125 C390.42781555 1463.36509476 389.5275061 1462.77315826 388.59991455 1462.1632843 C382.85833836 1458.35181642 377.38414676 1454.30004434 372 1450 C370.72576172 1449.00419922 370.72576172 1449.00419922 369.42578125 1447.98828125 C360.14319587 1440.6274141 350.79111375 1433.12159823 342.5703125 1424.5703125 C340.79397233 1422.79397233 338.91585411 1421.18696946 337 1419.5625 C333.64864024 1416.66697653 330.75759713 1413.58759208 327.8984375 1410.2109375 C325.74539482 1407.70348451 323.50020348 1405.29556589 321.25 1402.875 C307.43656723 1387.68439719 295.37015174 1370.70150902 285 1353 C284.3296875 1351.87464844 283.659375 1350.74929688 282.96875 1349.58984375 C271.93619904 1330.75248449 262.77170035 1310.92200545 255.77636719 1290.25244141 C255.046634 1288.13529725 254.27359252 1286.04180921 253.4765625 1283.94921875 C250.62231391 1276.3876323 248.33518059 1268.80926583 246.5 1260.9375 C246.17636475 1259.55353027 246.17636475 1259.55353027 245.84619141 1258.14160156 C242.37405715 1243.11218322 240.05336848 1228.10490209 238.4160248 1212.76754731 C238.13378967 1210.21160781 237.82711226 1207.65827175 237.49848306 1205.10788232 C235.60735646 1189.63486077 235.71643128 1174.15043982 235.74533385 1158.59151323 C235.75070564 1154.47917181 235.74430055 1150.36684473 235.73944318 1146.25450498 C235.73251572 1139.06476325 235.73284128 1131.87505123 235.73804665 1124.68530846 C235.74572716 1113.99381034 235.74181043 1103.30233802 235.73542418 1092.61084014 C235.72492027 1074.61774168 235.72306224 1056.62465261 235.72560501 1038.63155174 C235.72902821 1012.92470512 235.71564244 987.21788192 235.69883054 961.51104161 C235.69215122 951.185583 235.68601184 940.86012405 235.67987633 930.53466511 C235.67919233 929.38768682 235.67850834 928.24070853 235.67780361 927.05897332 C235.66164097 899.78484117 235.65079499 872.51070757 235.64160156 845.23657227 C235.64119553 844.04383269 235.64078949 842.85109312 235.64037116 841.62220993 C235.63093957 813.78297092 235.62407554 785.94373272 235.62164307 758.10449219 C235.6215365 756.90632982 235.62142994 755.70816744 235.62132015 754.47369712 C235.62078696 748.43150897 235.62027221 742.38932081 235.61975877 736.34713266 C235.61965656 735.15289794 235.61955435 733.95866321 235.61944905 732.72823956 C235.61924349 730.31778438 235.61904093 727.90732919 235.61884138 725.49687401 C235.61546055 685.67050276 235.59855157 645.84415505 235.56673984 606.01779606 C235.56226667 600.39404405 235.5579768 594.77029193 235.55381393 589.14653969 C235.55299348 588.0398112 235.55217302 586.93308272 235.5513277 585.79281701 C235.53858379 567.98870482 235.54057197 550.1846232 235.54844838 532.38050942 C235.55613155 514.49295738 235.54972798 496.60545627 235.52880932 478.71791437 C235.51684607 468.09412219 235.51607074 457.47046545 235.53130184 446.84667674 C235.54039065 439.74670913 235.53496386 432.64684745 235.51785937 425.54689489 C235.5085383 421.50430284 235.50543815 417.46197872 235.52012999 413.41939654 C235.53340417 409.7338245 235.5279398 406.04874981 235.50821665 402.36321097 C235.50251504 400.42994301 235.51620043 398.49664657 235.53093541 396.56342635 C235.43144573 384.72101998 232.61810949 373.47211934 227.6875 362.6875 C227.38682617 362.02073242 227.08615234 361.35396484 226.77636719 360.66699219 C218.60902077 343.0974034 204.01775711 328.33062249 186 321 C171.18360426 315.92533351 155.52245345 316.8775309 141.4453125 323.73046875 C124.38696525 333.78485931 111.80656755 348.55267185 104.75 367 C104.50362793 367.64018066 104.25725586 368.28036133 104.00341797 368.93994141 C100.25052253 379.21825835 99.7083866 389.12804662 99.73828697 400.00499916 C99.7350955 401.52084363 99.731031 403.03668647 99.72617769 404.55252653 C99.71537355 408.71472322 99.71693551 412.87683686 99.72052841 417.03904262 C99.72223685 421.56830231 99.71237005 426.09753927 99.70397437 430.62678945 C99.69085489 438.56358597 99.68511675 446.5003612 99.68421364 454.43716812 C99.6828373 466.23889575 99.67005191 478.04059174 99.6549259 489.84230877 C99.62980453 509.69490403 99.61394014 529.54749662 99.60334396 549.40010452 C99.59282158 569.05784301 99.57818944 588.71557136 99.55806351 608.37330246 C99.55681464 609.59537292 99.55556577 610.81744339 99.55427906 612.07654629 C99.54791534 618.28277638 99.54147815 624.48900639 99.53501268 630.69523637 C99.48934502 674.65863537 99.45289949 718.62203766 99.421875 762.58544922 C99.41435112 773.23974614 99.40679792 783.89404304 99.39910889 794.54833984 C99.39863204 795.2091291 99.39815519 795.86991836 99.39766389 796.55073153 C99.37496694 827.93991202 99.34677447 859.32908686 99.31738281 890.71826172 C99.31615181 892.03470377 99.31492081 893.35114582 99.3136525 894.70748006 C99.30128569 907.92768267 99.28883396 921.1478852 99.27632002 934.36808766 C99.2508294 961.29937692 99.22590558 988.23066669 99.20132446 1015.16195679 C99.1996281 1017.01935928 99.1996281 1017.01935928 99.19789747 1018.91428506 C99.12243698 1101.60951559 99.0601891 1184.30475712 99 1267 C98.67 1267 98.34 1267 98 1267 C97.99916575 1265.78994223 97.99916575 1265.78994223 97.99831466 1264.55543885 C97.93766234 1176.68193355 97.87455091 1088.80843015 97.79867554 1000.93493652 C97.79754191 999.62124975 97.79640829 998.30756297 97.79524031 996.95406751 C97.77118645 969.09608644 97.74673771 941.23810573 97.72181495 913.38012543 C97.70929438 899.38450258 97.69685176 885.38887966 97.68448287 871.39325668 C97.68261671 869.28217341 97.68074832 867.17109014 97.67887984 865.06000688 C97.65015428 832.58258862 97.62309233 800.10517002 97.60089111 767.62774658 C97.60041435 766.93035372 97.59993759 766.23296087 97.59944638 765.51443489 C97.59177057 754.27161384 97.58423539 743.0287927 97.57671889 731.78597155 C97.5550461 699.37204394 97.53231991 666.95811858 97.50273705 634.54419708 C97.50182375 633.54266982 97.50182375 633.54266982 97.500892 632.52090968 C97.48810335 618.51628126 97.47486937 604.5116533 97.46109388 590.50702582 C97.45464396 583.94676666 97.44826777 577.38650744 97.44193649 570.82624817 C97.44068819 569.53516001 97.43943988 568.24407184 97.43815375 566.9138598 C97.41829017 546.17374462 97.4052131 525.43363052 97.39470672 504.69350873 C97.38398511 483.81675947 97.36603568 462.94002616 97.34083296 442.06328928 C97.32609619 429.6768962 97.3167766 417.2905275 97.31543317 404.90412557 C97.31398463 396.60684992 97.30524729 388.3096016 97.29084408 380.0123384 C97.28286411 375.29955094 97.27780422 370.58681701 97.28172119 365.87402314 C97.29400974 348.65408667 97.16604264 331.48303821 96.10759544 314.29097748 C95.99149841 312.3784612 95.99149841 312.3784612 95.87305597 310.42730823 C95.41337562 303.7377725 94.65542502 297.20330014 93.44662628 290.60666791 C92.74099876 286.48837776 92.44924267 282.34978454 92.125 278.1875 C91.20464599 267.56721348 89.41686863 257.1772573 87.48486328 246.70117188 C86.89382671 243.40850894 86.37120698 240.10756405 85.85351562 236.80273438 C84.41881214 227.71099461 82.37396999 218.88879604 80 210 C79.70351562 208.84886719 79.40703125 207.69773437 79.1015625 206.51171875 C78.10034835 202.6651738 77.06108342 198.83035351 76 195 C75.75910645 194.12843262 75.51821289 193.25686523 75.27001953 192.35888672 C70.01401215 173.48811437 63.9069804 154.94190169 56 137 C55.71108887 136.32952637 55.42217773 135.65905273 55.12451172 134.96826172 C46.30146412 114.51704892 36.29328879 94.59430097 24 76 C23.05715052 74.55347741 22.11444795 73.10685905 21.171875 71.66015625 C11.22386142 56.48602756 0.79487913 41.79667226 -11 28 C-12.60919361 26.04579528 -14.21348756 24.0875441 -15.8125 22.125 C-18.85402674 18.39859047 -21.91087447 14.68702079 -25 11 C-24.45214844 10.79246094 -23.90429688 10.58492188 -23.33984375 10.37109375 C-19.18282828 8.75560319 -15.0896947 7.06620178 -11.06640625 5.140625 C-10.39424072 4.81908447 -9.7220752 4.49754395 -9.02954102 4.16625977 C-7.68420134 3.51746068 -6.34216629 2.86176089 -5.00366211 2.19897461 C-3.36267577 1.40759056 -1.68344252 0.69652434 0 0 Z " fill="#EC1B23" transform="translate(1132,276)"/>
<path d="M0 0 C13.17990465 3.04151646 25.0762741 10.45818981 36.9152832 16.78149414 C40.99119191 18.95559429 45.09370776 21.04451074 49.25 23.0625 C81.43659727 39.09064358 111.08928878 62.81669816 137.5 87 C140.58692536 89.82051947 143.68954196 92.60418863 146.875 95.3125 C154.86197186 102.26198892 162.41863506 109.91944796 169.26953125 117.98828125 C171.41533274 120.48283603 173.64585677 122.89218982 175.875 125.3125 C180.00999083 129.84785303 183.95004546 134.49920562 187.80078125 139.27734375 C189.21900987 141.03312589 190.65288612 142.77643786 192.10546875 144.50390625 C202.58997163 157.01273938 211.93956836 170.48797923 220.81591797 184.17431641 C221.59761436 185.37957943 222.38302894 186.58244009 223.17236328 187.78271484 C237.33617472 209.37267087 250.74124524 233.11321349 258.83203125 257.7265625 C259.76494095 260.34120573 260.78165085 262.79752688 261.92578125 265.3203125 C271.79144953 287.17931351 277.15947551 310.97588482 282.37475586 334.26928711 C282.91381825 336.62360685 283.48428272 338.96475164 284.08203125 341.3046875 C288.30642967 358.31013817 290.85021509 375.99568824 292.26586914 393.4440918 C292.63434287 397.82444827 293.17162333 402.10021177 293.96358597 406.42541742 C295.13191601 413.36096448 295.68327275 420.27475633 296.10996819 427.29097748 C296.15193396 427.9719128 296.19389974 428.65284812 296.2371372 429.35441784 C297.28491217 446.7559475 297.27823144 464.15384688 297.24453239 481.58067685 C297.23753652 486.38621272 297.24242929 491.19174082 297.24568737 495.99727869 C297.24979726 504.38505826 297.24661244 512.7728092 297.23841095 521.1605854 C297.22625022 533.63254435 297.22574768 546.10448556 297.22749493 558.57644935 C297.23011194 579.56482158 297.22348114 600.55318114 297.21146011 621.54154968 C297.19959964 642.30311649 297.1919229 663.064678 297.18975449 683.82624817 C297.18961701 685.12028274 297.18947953 686.41431731 297.18933788 687.74756505 C297.18866116 694.32012036 297.18805841 700.89267568 297.18748413 707.465231 C297.18627865 720.82488644 297.18442195 734.18454177 297.18227959 747.54419708 C297.18211963 748.54646583 297.18211963 748.54646583 297.18195645 749.56898244 C297.17672346 782.00904364 297.1641125 814.4491014 297.15087891 846.88916016 C297.14629525 858.13535561 297.14174438 869.38155107 297.1373291 880.62774658 C297.1370552 881.32531254 297.1367813 882.0228785 297.13649911 882.74158282 C297.12379214 915.21827594 297.11635371 947.69496966 297.11025951 980.17166461 C297.10986339 982.28214948 297.109465 984.39263434 297.10906615 986.50311921 C297.10642641 1000.49035029 297.10387714 1014.47758139 297.10138843 1028.4648125 C297.09631847 1056.95485394 297.09067439 1085.44489526 297.08468628 1113.93493652 C297.08427441 1115.89954482 297.08427441 1115.89954482 297.08385422 1117.90384217 C297.06547311 1205.26923098 297.0337851 1292.63461596 297 1380 C289.29202323 1375.61208533 289.29202323 1375.61208533 286.328125 1373.6171875 C285.67779297 1373.18148438 285.02746094 1372.74578125 284.35742188 1372.296875 C283.66197266 1371.82765625 282.96652344 1371.3584375 282.25 1370.875 C280.66156598 1369.80973531 279.07301665 1368.74464253 277.484375 1367.6796875 C276.61619141 1367.09670898 275.74800781 1366.51373047 274.85351562 1365.91308594 C269.99420984 1362.65525567 265.1243046 1359.41332119 260.25552368 1356.16967773 C257.34572005 1354.23092148 254.43656241 1352.29119639 251.52734375 1350.3515625 C250.40478825 1349.60318546 249.28222973 1348.85481296 248.15966797 1348.10644531 C216.88378906 1327.25585938 185.60791016 1306.40527344 154.33203125 1285.5546875 C153.70280762 1285.13525879 153.07358398 1284.71583008 152.42529297 1284.28369141 C151.14416802 1283.4294998 149.86324272 1282.5750087 148.58251953 1281.72021484 C145.61297686 1279.73873806 142.64117628 1277.76105083 139.66015625 1275.796875 C138.63792969 1275.12140625 137.61570312 1274.4459375 136.5625 1273.75 C135.67691406 1273.16734375 134.79132813 1272.5846875 133.87890625 1271.984375 C132.45384766 1271.00210937 132.45384766 1271.00210937 131 1270 C130.01179202 1269.53449853 130.01179202 1269.53449853 129.00362025 1269.059593 C126.40635092 1267.6180634 124.83067056 1266.35866912 123 1264 C121.76575154 1258.66371584 121.9372282 1253.34590335 122.01117325 1247.90386868 C122.00476158 1246.21968262 121.9948377 1244.5355069 121.98171645 1242.85135975 C121.95573431 1238.20243126 121.97982322 1233.55488049 122.01173669 1228.90603815 C122.03761014 1223.85602377 122.01711572 1218.80616843 122.00238109 1213.75613886 C121.98294757 1204.8976302 121.99325637 1196.03953959 122.0228138 1187.18106461 C122.0666103 1174.00687785 122.0646208 1160.83297927 122.0529394 1147.65873907 C122.03450613 1125.48995484 122.05276092 1103.32131564 122.09122467 1081.15257072 C122.12919584 1059.17211741 122.14881865 1037.19176224 122.14455414 1015.2112751 C122.14436433 1014.18680385 122.14436433 1014.18680385 122.14417069 1013.14163622 C122.14285824 1006.20661169 122.14115519 999.2715873 122.13919319 992.33656293 C122.13501074 977.52085916 122.13343999 962.70515535 122.13303757 947.88945103 C122.13300447 946.82971183 122.13300447 946.82971183 122.13297071 945.74856375 C122.13209555 912.11159354 122.15738074 878.47465282 122.18700023 844.83769757 C122.18896535 842.60562416 122.19092285 840.37355076 122.19287783 838.14147734 C122.19548722 835.16227741 122.19809826 832.18307747 122.2007112 829.20387754 C122.20659922 822.48894994 122.2124775 815.77402233 122.21832402 809.05909469 C122.2196254 807.56506187 122.22092881 806.07102904 122.22223422 804.57699621 C122.25218844 770.27139949 122.27257889 735.9658003 122.28851565 701.66019439 C122.28955051 699.43588418 122.29059594 697.21157398 122.29164292 694.98726379 C122.3073741 661.44188827 122.31824666 627.89651552 122.31978989 594.35113621 C122.31986089 592.9246896 122.31993193 591.49824299 122.32000301 590.07179638 C122.32061104 577.36371529 122.32101234 564.65563421 122.32038638 551.94755311 C122.31998197 543.6107066 122.31985635 535.27386014 122.3201828 526.93701363 C122.32020892 526.25369586 122.32023503 525.5703781 122.32026194 524.86635374 C122.3213365 502.24596139 122.34035708 479.62562112 122.36868115 457.00524777 C122.39630884 434.92829122 122.41079363 412.85135389 122.41173014 390.77437847 C122.41280728 377.68020986 122.42522243 364.58616574 122.4541226 351.49202841 C122.47239996 342.71682622 122.4758582 333.94169451 122.46791437 325.1664772 C122.4638347 320.18485799 122.4657018 315.20346612 122.48605731 310.22188174 C122.67957628 260.27489799 117.67776457 208.98010537 99.73632812 161.94628906 C98.64663346 159.06596882 97.6416854 156.15676497 96.625 153.25 C94.2930346 146.72875163 91.77499413 140.34483582 89 134 C88.6690332 133.23719727 88.33806641 132.47439453 87.99707031 131.68847656 C71.29341375 93.37693475 48.76299667 58.05276409 22 26 C21.51789062 25.41879395 21.03578125 24.83758789 20.5390625 24.23876953 C14.98885699 17.55207512 9.29783809 11.03056415 3.35107422 4.69238281 C0 1.10168282 0 1.10168282 0 0 Z " fill="#F05056" transform="translate(933,163)"/>
<path d="M0 0 C48.29417839 -0.65466561 95.06833665 5.45837906 140 24 C140.85231201 24.3494165 141.70462402 24.69883301 142.58276367 25.05883789 C173.73464979 37.95154833 203.303327 55.06292546 229 77 C230.1663601 77.98083342 231.33304659 78.9612788 232.5 79.94140625 C238.38314193 84.9080396 244.13505289 89.89138596 249.44921875 95.4765625 C251.12721691 97.22014627 251.12721691 97.22014627 254 99 C254 99.66 254 100.32 254 101 C254.66 101 255.32 101 256 101 C257.48046875 102.50390625 257.48046875 102.50390625 259.1875 104.5625 C261.48728702 107.27482613 263.81054465 109.84966643 266.375 112.3125 C270.48657189 116.3694935 274.04609415 120.82846133 277.65332031 125.33251953 C279.13732938 127.17004345 280.6414088 128.9899068 282.1484375 130.80859375 C288.87719834 138.95346772 295.14308545 147.19885552 301 156 C301.81806764 157.20506764 302.63711105 158.40947332 303.45703125 159.61328125 C308.54925707 167.12463303 313.36467375 174.76302124 317.9765625 182.578125 C319.66153108 185.42760854 321.38557075 188.24628122 323.125 191.0625 C326.42353607 196.56308075 329.22441262 202.29874039 332.04394531 208.05566406 C333.76043864 211.54651005 335.5074336 215.02211783 337.25 218.5 C338.20606013 220.41165229 339.16199342 222.3232792 340.11132812 224.23828125 C340.97736149 225.95512102 341.88664376 227.64992839 342.796875 229.34375 C343.39242187 230.65859375 343.39242187 230.65859375 344 232 C343.67 232.66 343.34 233.32 343 234 C342.29875 233.154375 341.5975 232.30875 340.875 231.4375 C321.84222069 208.61232312 296.79698127 189.01936514 266.25 185.1875 C264.50158038 185.09036558 262.7507656 185.03501531 261 185 C260.30422852 184.97566895 259.60845703 184.95133789 258.89160156 184.92626953 C228.2511332 183.91579935 200.62269751 193.64410437 177.8125 214.375 C153.08065453 237.55758408 134.59960241 270.85513091 132.8846359 305.3183036 C132.68833328 312.02525343 132.71481072 318.73426513 132.7215271 325.44343567 C132.71651919 327.7232976 132.71064195 330.00315775 132.70397437 332.28301543 C132.68822033 338.52451863 132.68474622 344.76597675 132.68332577 351.00749743 C132.68000428 357.05409898 132.66734371 363.10067646 132.6549259 369.14726439 C132.62985922 381.50892039 132.61395942 393.87057212 132.60334396 406.23224831 C132.59280818 418.46601085 132.57816132 430.6997572 132.55806351 442.93350792 C132.55681464 443.69510503 132.55556577 444.45670215 132.55427906 445.24137796 C132.54791502 449.1093863 132.54147791 452.97739451 132.53501268 456.84540268 C132.48939012 484.21894816 132.45292531 511.59249889 132.421875 538.96606445 C132.39169523 565.5536374 132.35734935 592.14119965 132.31738281 618.72875977 C132.31615181 619.54878068 132.31492081 620.36880159 132.3136525 621.21367162 C132.30128529 629.44890664 132.2888336 637.68414152 132.27632002 645.91937632 C132.25083195 662.69443436 132.22590766 679.46949322 132.20132446 696.24455261 C132.20019355 697.01578675 132.19906264 697.78702089 132.19789747 698.58162576 C132.12248431 750.05440481 132.06025329 801.52720123 132 853 C130.27699534 851.90679894 128.55442521 850.81291299 126.83203125 849.71875 C125.87272705 849.10966797 124.91342285 848.50058594 123.92504883 847.87304688 C114.31294927 841.71796568 104.92492342 835.22438062 95.5012207 828.78686523 C87.46202448 823.30115957 79.37594921 817.88894353 71.26782227 812.50585938 C70.51944092 812.00892578 69.77105957 811.51199219 69 811 C67.66763306 810.11538086 67.66763306 810.11538086 66.30834961 809.21289062 C59.08688526 804.40935668 51.9035446 799.55194043 44.7298584 794.67758179 C35.52036425 788.42099494 26.29878272 782.18407094 17.02734375 776.01953125 C16.29026688 775.52932495 15.55319 775.03911865 14.79377747 774.53405762 C11.24107227 772.17239752 7.68611977 769.81420587 4.12817383 767.46044922 C2.81979191 766.59217107 1.51144082 765.72384648 0.203125 764.85546875 C-0.36354385 764.48218948 -0.93021271 764.10891022 -1.51405334 763.72431946 C-2.64697014 762.97128914 -3.76282824 762.19194243 -4.85985214 761.38752109 C-7.0182576 759.89306501 -7.0182576 759.89306501 -9.72901171 758.88979262 C-13.26261289 757.12050874 -15.9524021 755.39558349 -18 752 C-20.24516065 743.87494599 -19.44251535 734.93670278 -19.33625793 726.59455872 C-19.34248644 723.93118828 -19.35307948 721.26816015 -19.36901492 718.60486335 C-19.39488132 712.8094662 -19.37992674 707.01529128 -19.33817673 701.22000313 C-19.27626042 692.60136983 -19.27746016 683.98355 -19.29147124 675.36474695 C-19.31322389 660.85907977 -19.2834718 646.35394247 -19.22416115 631.84839821 C-19.16547115 617.46692272 -19.12875318 603.08567398 -19.12152672 588.70407677 C-19.12106083 587.80909624 -19.12059495 586.91411572 -19.12011494 585.99201457 C-19.11784873 581.4461098 -19.11595222 576.90020497 -19.11418398 572.35429998 C-19.10085017 540.13831434 -19.03500587 507.92262518 -18.93969727 475.70678711 C-18.84738379 444.48152379 -18.78348211 413.25639482 -18.75512695 382.03100586 C-18.75424629 381.07062462 -18.75336563 380.11024338 -18.75245828 379.12075967 C-18.7453845 371.39322423 -18.73842597 363.66568868 -18.731675 355.93815294 C-18.70241627 322.49036639 -18.65190881 289.04260837 -18.59550637 255.59485767 C-18.58643505 250.20429155 -18.57770918 244.81372503 -18.569267 239.4231579 C-18.53816008 219.61914976 -18.50033846 199.81518761 -18.44164792 180.01123986 C-18.41857796 172.1961397 -18.39811837 164.38106151 -18.38645172 156.56593513 C-18.37672888 150.07280375 -18.3602611 143.57973221 -18.33522946 137.08664105 C-18.32283795 133.829364 -18.31422385 130.57216552 -18.31223295 127.31486342 C-18.29472996 104.56725366 -18.00892497 81.559973 -13.39868164 59.21191406 C-12.88595326 56.36726059 -12.52898316 53.51036425 -12.15234375 50.64453125 C-11.05489136 42.80446895 -9.3841016 35.13807141 -7.59594727 27.4296875 C-7.0587109 25.10862969 -6.53373317 22.78502251 -6.00976562 20.4609375 C-5.6647853 18.95556334 -5.31910707 17.45034891 -4.97265625 15.9453125 C-4.81942398 15.26493927 -4.66619171 14.58456604 -4.50831604 13.88357544 C-3.3825112 9.07963423 -1.80486867 4.59298907 0 0 Z " fill="#F05056" transform="translate(500,293)"/>
<path d="M0 0 C2.84315711 0.01064672 5.6856715 0.00008725 8.52880859 -0.01269531 C20.88254755 -0.02165161 32.98054428 0.81019294 45.24365234 2.26074219 C46.65956472 2.41873408 48.07557608 2.5758421 49.49169922 2.73193359 C57.00836311 3.58347894 64.09819981 5.13931858 71.37255859 7.19824219 C74.70319222 8.13601814 78.05321012 8.91479394 81.4309082 9.66259766 C129.51466009 20.36751565 175.28790288 45.86844203 211.24365234 79.26074219 C212.55269694 80.38976101 213.8651217 81.5148744 215.18115234 82.63574219 C231.88270372 97.20733863 246.08368067 114.79340309 258.24365234 133.26074219 C258.68644531 133.92460937 259.12923828 134.58847656 259.58544922 135.27246094 C282.29286738 169.47375742 297.37204728 207.53275486 307.24365234 247.26074219 C307.49501953 248.26830566 307.74638672 249.27586914 308.00537109 250.31396484 C311.6842987 265.39149875 314.13015818 280.5025248 316.05615234 295.88574219 C316.16138214 296.71797302 316.26661194 297.55020386 316.37503052 298.40765381 C316.67991072 300.84989421 316.97386824 303.29317508 317.26318359 305.73730469 C317.34832214 306.43047791 317.43346069 307.12365112 317.5211792 307.83782959 C319.13728733 322.02232657 319.39277726 336.28937253 319.34130859 350.54980469 C319.33943558 352.11591547 319.33801588 353.68202684 319.33702087 355.24813843 C319.33326508 359.30197873 319.32349722 363.35578122 319.31231689 367.40960693 C319.30195047 371.57352182 319.29749118 375.73744302 319.29248047 379.90136719 C319.28186611 388.0211759 319.26487709 396.1409543 319.24365234 404.26074219 C316.89884525 400.74353154 316.83225061 398.68921648 316.43115234 394.51074219 C314.11114863 374.23850529 304.11764509 353.44691005 292.72412109 336.76074219 C291.08176679 333.98737344 290.23309617 331.32651888 289.24365234 328.26074219 C288.08860478 325.5171918 286.82888776 322.82640813 285.55615234 320.13574219 C285.20311035 319.38728027 284.85006836 318.63881836 284.48632812 317.86767578 C281.87847476 312.41722721 279.00510727 307.18919777 275.88818359 302.01074219 C274.28862561 299.33594689 272.78526387 296.62867677 271.30615234 293.88574219 C264.81127332 281.92419719 257.95772122 270.46865178 250.24365234 259.26074219 C249.77942871 258.58108398 249.31520508 257.90142578 248.83691406 257.20117188 C241.47604494 246.45046163 233.61812283 236.23905065 225.24365234 226.26074219 C224.71707031 225.62974609 224.19048828 224.99875 223.64794922 224.34863281 C217.9717669 217.56112855 212.23707135 211.01339983 205.79052734 204.93261719 C204.24365234 203.26074219 204.24365234 203.26074219 204.24365234 201.26074219 C203.58365234 201.26074219 202.92365234 201.26074219 202.24365234 201.26074219 C200.52895304 199.64353415 198.86930421 197.96743828 197.24365234 196.26074219 C190.59196887 189.4047408 183.7352505 183.18618734 176.24365234 177.26074219 C174.77605469 176.0503125 174.77605469 176.0503125 173.27880859 174.81542969 C157.55794772 161.95844657 140.25725866 150.63594107 122.24365234 141.26074219 C121.60588867 140.92671387 120.968125 140.59268555 120.31103516 140.24853516 C109.82769491 134.79334444 99.08471628 129.95616779 88.24365234 125.26074219 C87.16212891 124.78636719 86.08060547 124.31199219 84.96630859 123.82324219 C43.69684077 106.09675936 -1.41496638 101.15749166 -45.88134766 101.01074219 C-46.89372498 101.00529388 -47.90610229 100.99984558 -48.94915771 100.99423218 C-61.06790381 100.94569625 -72.7728458 101.39256488 -84.75634766 103.26074219 C-86.38128056 103.48648607 -88.00626952 103.71182737 -89.63134766 103.93652344 C-118.64253364 108.30981052 -147.56136503 114.84035524 -173.63134766 128.76074219 C-174.69095703 129.30794922 -174.69095703 129.30794922 -175.77197266 129.86621094 C-180.25292426 132.23994924 -183.9677527 134.88782379 -187.75634766 138.26074219 C-188.41634766 137.93074219 -189.07634766 137.60074219 -189.75634766 137.26074219 C-179.7443511 122.60948715 -168.9793263 108.72319105 -156.95141602 95.65917969 C-155.58307089 94.16405984 -154.22528731 92.65911847 -152.8840332 91.13964844 C-146.61040307 84.0374837 -139.99088116 77.30911318 -133.29150391 70.6105957 C-131.38625262 68.70315279 -129.48917153 66.78782752 -127.59228516 64.87207031 C-120.61583331 57.86390113 -113.51603423 51.4002477 -105.75634766 45.26074219 C-104.59188622 44.26637234 -103.43443606 43.26366796 -102.28759766 42.24902344 C-90.39964567 31.73963551 -77.61137669 22.41360923 -64.44384766 13.57324219 C-63.55644897 12.97648682 -63.55644897 12.97648682 -62.65112305 12.36767578 C-56.13979672 8.07179425 -50.33584696 5.69565547 -42.75634766 4.19824219 C-41.99451172 4.03775391 -41.23267578 3.87726563 -40.44775391 3.71191406 C-37.88987433 3.18899779 -35.32668321 2.71851061 -32.75634766 2.26074219 C-31.27835693 1.98496338 -31.27835693 1.98496338 -29.77050781 1.70361328 C-19.84327301 0.04784547 -10.0428579 -0.04455115 0 0 Z " fill="#A41319" transform="translate(551.75634765625,192.7392578125)"/>
<path d="M0 0 C0.66 0.33 1.32 0.66 2 1 C2 1.99 2 2.98 2 4 C4.31714443 5.82996558 6.59850745 7.45202344 9.0625 9.0625 C9.78767822 9.54855713 10.51285645 10.03461426 11.26000977 10.53540039 C13.50004263 12.03386487 15.74891222 13.51820827 18 15 C20.48072241 16.64349408 22.95932228 18.29017188 25.4375 19.9375 C26.04456787 20.3404126 26.65163574 20.7433252 27.27709961 21.15844727 C46.20861412 33.76873181 64.58337472 47.2769646 81.39550781 62.63061523 C83.8086282 64.82590333 86.24243749 66.99566015 88.6796875 69.1640625 C93.96149179 73.91744195 99.04074629 78.84888165 104.0625 83.875 C104.93865967 84.75124023 105.81481934 85.62748047 106.7175293 86.53027344 C112.56365339 92.42833635 117.90911156 98.43969604 123 105 C124.09514874 106.23720813 125.19922668 107.46657525 126.3125 108.6875 C153.54482286 139.62191284 175.45857691 178.98975879 188.578125 217.9375 C189.60034058 220.94543715 190.75065607 223.87762189 191.95703125 226.81640625 C194.09495768 232.10421769 195.80523251 237.47523177 197.4375 242.9375 C197.73970459 243.94401611 198.04190918 244.95053223 198.35327148 245.98754883 C205.39921383 269.65286699 210.69003696 293.66885471 214.875 318 C215.09027344 319.22114502 215.30554687 320.44229004 215.52734375 321.70043945 C216.77417842 329.20363865 217.26630593 336.39722691 217 344 C216.27941406 343.27554687 215.55882812 342.55109375 214.81640625 341.8046875 C201.14959593 328.19474324 187.57549983 318.26782549 167.5625 317.5 C149.24853782 318.21907582 134.71776434 325.88957741 122 339 C114.42828501 347.46569207 108.79939111 356.41405349 104.75 367 C104.50362793 367.64018066 104.25725586 368.28036133 104.00341797 368.93994141 C100.25052253 379.21825835 99.7083866 389.12804662 99.73828697 400.00499916 C99.7350955 401.52084363 99.731031 403.03668647 99.72617769 404.55252653 C99.71537355 408.71472322 99.71693551 412.87683686 99.72052841 417.03904262 C99.72223685 421.56830231 99.71237005 426.09753927 99.70397437 430.62678945 C99.69085489 438.56358597 99.68511675 446.5003612 99.68421364 454.43716812 C99.6828373 466.23889575 99.67005191 478.04059174 99.6549259 489.84230877 C99.62980453 509.69490403 99.61394014 529.54749662 99.60334396 549.40010452 C99.59282158 569.05784301 99.57818944 588.71557136 99.55806351 608.37330246 C99.55681464 609.59537292 99.55556577 610.81744339 99.55427906 612.07654629 C99.54791534 618.28277638 99.54147815 624.48900639 99.53501268 630.69523637 C99.48934502 674.65863537 99.45289949 718.62203766 99.421875 762.58544922 C99.41435112 773.23974614 99.40679792 783.89404304 99.39910889 794.54833984 C99.39863204 795.2091291 99.39815519 795.86991836 99.39766389 796.55073153 C99.37496694 827.93991202 99.34677447 859.32908686 99.31738281 890.71826172 C99.31615181 892.03470377 99.31492081 893.35114582 99.3136525 894.70748006 C99.30128569 907.92768267 99.28883396 921.1478852 99.27632002 934.36808766 C99.2508294 961.29937692 99.22590558 988.23066669 99.20132446 1015.16195679 C99.1996281 1017.01935928 99.1996281 1017.01935928 99.19789747 1018.91428506 C99.12243698 1101.60951559 99.0601891 1184.30475712 99 1267 C98.67 1267 98.34 1267 98 1267 C97.99916575 1265.78994223 97.99916575 1265.78994223 97.99831466 1264.55543885 C97.93766234 1176.68193355 97.87455091 1088.80843015 97.79867554 1000.93493652 C97.79754191 999.62124975 97.79640829 998.30756297 97.79524031 996.95406751 C97.77118645 969.09608644 97.74673771 941.23810573 97.72181495 913.38012543 C97.70929438 899.38450258 97.69685176 885.38887966 97.68448287 871.39325668 C97.68261671 869.28217341 97.68074832 867.17109014 97.67887984 865.06000688 C97.65015428 832.58258862 97.62309233 800.10517002 97.60089111 767.62774658 C97.60041435 766.93035372 97.59993759 766.23296087 97.59944638 765.51443489 C97.59177057 754.27161384 97.58423539 743.0287927 97.57671889 731.78597155 C97.5550461 699.37204394 97.53231991 666.95811858 97.50273705 634.54419708 C97.50182375 633.54266982 97.50182375 633.54266982 97.500892 632.52090968 C97.48810335 618.51628126 97.47486937 604.5116533 97.46109388 590.50702582 C97.45464396 583.94676666 97.44826777 577.38650744 97.44193649 570.82624817 C97.44068819 569.53516001 97.43943988 568.24407184 97.43815375 566.9138598 C97.41829017 546.17374462 97.4052131 525.43363052 97.39470672 504.69350873 C97.38398511 483.81675947 97.36603568 462.94002616 97.34083296 442.06328928 C97.32609619 429.6768962 97.3167766 417.2905275 97.31543317 404.90412557 C97.31398463 396.60684992 97.30524729 388.3096016 97.29084408 380.0123384 C97.28286411 375.29955094 97.27780422 370.58681701 97.28172119 365.87402314 C97.29400974 348.65408667 97.16604264 331.48303821 96.10759544 314.29097748 C95.99149841 312.3784612 95.99149841 312.3784612 95.87305597 310.42730823 C95.41337562 303.7377725 94.65542502 297.20330014 93.44662628 290.60666791 C92.74099876 286.48837776 92.44924267 282.34978454 92.125 278.1875 C91.20464599 267.56721348 89.41686863 257.1772573 87.48486328 246.70117188 C86.89382671 243.40850894 86.37120698 240.10756405 85.85351562 236.80273438 C84.41881214 227.71099461 82.37396999 218.88879604 80 210 C79.70351562 208.84886719 79.40703125 207.69773437 79.1015625 206.51171875 C78.10034835 202.6651738 77.06108342 198.83035351 76 195 C75.75910645 194.12843262 75.51821289 193.25686523 75.27001953 192.35888672 C70.01401215 173.48811437 63.9069804 154.94190169 56 137 C55.71108887 136.32952637 55.42217773 135.65905273 55.12451172 134.96826172 C46.30146412 114.51704892 36.29328879 94.59430097 24 76 C23.05715052 74.55347741 22.11444795 73.10685905 21.171875 71.66015625 C11.22386142 56.48602756 0.79487913 41.79667226 -11 28 C-12.60919361 26.04579528 -14.21348756 24.0875441 -15.8125 22.125 C-18.85402674 18.39859047 -21.91087447 14.68702079 -25 11 C-24.45214844 10.79246094 -23.90429688 10.58492188 -23.33984375 10.37109375 C-19.18282828 8.75560319 -15.0896947 7.06620178 -11.06640625 5.140625 C-10.39424072 4.81908447 -9.7220752 4.49754395 -9.02954102 4.16625977 C-7.68420134 3.51746068 -6.34216629 2.86176089 -5.00366211 2.19897461 C-3.36267577 1.40759056 -1.68344252 0.69652434 0 0 Z " fill="#A21319" transform="translate(1132,276)"/>
<path d="M0 0 C0.66 0.33 1.32 0.66 2 1 C0.515 2.485 0.515 2.485 -1 4 C-0.67 4.66 -0.34 5.32 0 6 C-3.3 6.66 -6.6 7.32 -10 8 C-6.91367389 4.7373124 -4.06516496 1.97764782 0 0 Z " fill="#D41920" transform="translate(510,192)"/>
<path d="M0 0 C2.64465038 3.1254959 3.84414715 6.08788267 5 10 C2.35247996 7.42215154 0.05567935 5.08351902 -2 2 C-1.34 2 -0.68 2 0 2 C0 1.34 0 0.68 0 0 Z " fill="#D23E44" transform="translate(839,517)"/>
</svg>
